<svg width="46" height="38" xmlns="http://www.w3.org/2000/svg" xmlns:xlink="http://www.w3.org/1999/xlink"><defs><path id="a" d="M0 .066h18.654v17.708H0z"/><path id="c" d="M.132.066h18.653v17.708H.132z"/></defs><g fill="none" fill-rule="evenodd"><g transform="translate(0 20)"><mask id="b" fill="#fff"><use xlink:href="#a"/></mask><path d="M2.347 15.47c.28-3.29 2.835-4.314 4.66-4.67L7 10.799c1.424-.497.939-1.4.718-1.737l-.12-.113c-1.27-1.29-2.549-6.578 1.62-6.578 4.173 0 2.969 5.288 1.721 6.578l-.122.113c-.215.336-.687 1.24.734 1.737 1.834.348 4.426 1.366 4.755 4.672H2.347zm11.306-6.486c.789-1.702 1.175-4.109.334-6.03C13.183 1.117 11.445.065 9.218.065c-2.222 0-3.95 1.048-4.74 2.877-.835 1.933-.418 4.355.4 6.063C2.009 10.073.262 12.291.008 15.28a2.274 2.274 0 0 0 .612 1.75c.444.475 1.07.745 1.727.745h13.96c.662 0 1.293-.274 1.738-.756a2.28 2.28 0 0 0 .597-1.772c-.299-2.996-2.088-5.211-4.99-6.262z" fill="#676363" mask="url(#b)"/></g><g transform="translate(27 20)"><mask id="d" fill="#fff"><use xlink:href="#c"/></mask><path d="M2.479 15.47c.33-3.306 2.92-4.324 4.756-4.672 1.42-.497.949-1.4.733-1.737l-.122-.113C6.598 7.658 5.395 2.37 9.566 2.37c4.17 0 2.892 5.288 1.622 6.578l-.12.113c-.222.336-.706 1.24.717 1.737l-.007.003c1.826.355 4.38 1.378 4.66 4.67H2.478zm11.428-6.464c.819-1.708 1.236-4.13.4-6.063-.79-1.83-2.518-2.877-4.74-2.877-2.227 0-3.965 1.052-4.769 2.888-.84 1.921-.454 4.328.335 6.03-2.902 1.05-4.691 3.266-4.99 6.262-.064.647.152 1.29.598 1.772a2.365 2.365 0 0 0 1.738.756h13.96a2.37 2.37 0 0 0 1.727-.744 2.279 2.279 0 0 0 .611-1.751c-.254-2.988-2-5.206-4.87-6.273z" fill="#676363" mask="url(#d)"/></g><path d="M20.854 10.743c1.37-.497.916-1.402.708-1.739a9.645 9.645 0 0 1-.119-.113C20.24 7.6 19.078 2.306 23.105 2.306c4.023 0 2.79 5.294 1.564 6.585-.037.038-.078.076-.117.113-.213.337-.68 1.242.693 1.74l-.008.002c1.763.356 4.229 1.38 4.499 4.674H16.265c.317-3.31 2.818-4.329 4.589-4.677m-4.59 6.983h5.442v4.445l-4.42 3.467a1.334 1.334 0 0 0-.235 1.849 1.28 1.28 0 0 0 1.814.239L23 24.483l4.135 3.243a1.28 1.28 0 0 0 1.815-.24 1.333 1.333 0 0 0-.235-1.848l-4.42-3.468v-4.444h5.44c.634 0 1.238-.27 1.667-.745a2.332 2.332 0 0 0 .59-1.753c-.245-2.99-1.93-5.211-4.7-6.279.79-1.709 1.193-4.134.387-6.069C26.917 1.05 25.249 0 23.105 0c-2.15 0-3.827 1.054-4.602 2.89-.811 1.925-.439 4.334.323 6.038-2.8 1.051-4.527 3.268-4.815 6.267a2.334 2.334 0 0 0 .576 1.774c.43.482 1.038.757 1.678.757" fill="#676363"/></g></svg>