<svg width="33" height="36" xmlns="http://www.w3.org/2000/svg"><g fill="#676363" fill-rule="evenodd"><path d="M8.49 18L10 16.367C8.254 14.923 7.293 13.017 7.293 11c0-2.018.96-3.923 2.706-5.368L8.49 4C6.24 5.863 5 8.349 5 11c0 2.652 1.24 5.137 3.49 7M22.51 4L21 5.632c1.745 1.445 2.707 3.35 2.707 5.368 0 2.017-.962 3.923-2.707 5.367L22.51 18c2.25-1.863 3.49-4.349 3.49-7 0-2.652-1.24-5.138-3.49-7"/><path d="M1.94 10.384c0-3.312 1.392-6.437 3.922-8.797L4.584.03C1.628 2.79 0 6.466 0 10.384c0 3.917 1.628 7.594 4.584 10.353l1.278-1.557c-2.53-2.36-3.923-5.484-3.923-8.796M27.633.03L26.25 1.587c2.74 2.36 4.25 5.485 4.25 8.796 0 3.313-1.51 6.437-4.25 8.798l1.384 1.557c3.203-2.76 4.966-6.437 4.966-10.355 0-3.917-1.763-7.594-4.966-10.353M16.5 23a1.499 1.499 0 1 0 0 3 1.5 1.5 0 0 0 0-3"/><path d="M20.302 33.863c-.087-1.313-.418-3.448-1.599-4.654a3.023 3.023 0 0 0-2.203-.934c-.843 0-1.605.323-2.204.934-1.18 1.206-1.51 3.341-1.598 4.654h-2.195l5.545-19.156a4.526 4.526 0 0 0 .904 0l5.545 19.156h-2.195zM16.5 8.137c1.236 0 2.242 1 2.242 2.228a2.237 2.237 0 0 1-2.242 2.228 2.238 2.238 0 0 1-2.243-2.228A2.238 2.238 0 0 1 16.5 8.137zm2.476 5.831a4.356 4.356 0 0 0 1.918-3.603C20.894 7.96 18.922 6 16.5 6c-2.423 0-4.394 1.959-4.394 4.365 0 1.495.761 2.816 1.918 3.603L8.042 34.636c-.094.323-.029.67.174.938.203.268.522.426.86.426h4.67c.29 0 .568-.117.77-.323.203-.207.313-.486.305-.775-.022-.798.117-3.283 1.016-4.203a.866.866 0 0 1 .663-.286c.263 0 .467.087.661.285.8.814 1.05 3.012 1.02 4.204-.01.289.1.568.303.775.202.206.48.323.771.323h4.67c.337 0 .656-.158.859-.426a1.06 1.06 0 0 0 .174-.938l-5.982-20.668z"/></g></svg>