<svg width="37" height="35" xmlns="http://www.w3.org/2000/svg"><path d="M12 30v-8.94c0-.585-.504-1.06-1.123-1.06H4.123C3.502 20 3 20.475 3 21.06V30h2.247v-7.881h4.505V30H12zm10 1V17.118A1.12 1.12 0 0 0 20.877 16h-6.754c-.62 0-1.123.5-1.123 1.118V31h2.247V18.237h4.506V31H22zm5.247-19.702h4.507V32H34V10.149C34 9.515 33.498 9 32.877 9h-6.753C25.504 9 25 9.515 25 10.149V32h2.247V11.298zM0 35h37v-2H0zM21.272 2.446L19.178 8.88l-2.27-2.874-.001-.002-.002-.001-2.27-2.875 6.637-.68zM1.122 20c.246 0 .493-.082.7-.25L15.859 8.315l2.86 3.623a1.114 1.114 0 0 0 1.073.408c.406-.074.738-.367.866-.763l3.286-10.088a1.155 1.155 0 0 0-.19-1.07 1.112 1.112 0 0 0-.987-.42L12.358 1.073a1.123 1.123 0 0 0-.922.692c-.158.385-.097.827.16 1.152l2.86 3.622L.42 17.973a1.15 1.15 0 0 0-.173 1.601c.221.28.546.426.874.426z" fill="#676363" fill-rule="evenodd"/></svg>