<svg width="45" height="30" xmlns="http://www.w3.org/2000/svg"><path d="M42.44 9.071l-5.462 5.781a1.28 1.28 0 0 1-1.82.043l-2.529-2.428-.22-.212-.005-.004L26.5 6.585c-.242-.233-.57-.35-.977-.35-.877 0-2.298.527-2.713.688l-1.21.472c-.68.265-1.53-.087-1.816-.733l-.045-.1c-.307-.694.009-1.58.69-1.937l3.566-1.872c.35-.183.851-.288 1.375-.288.64 0 1.267.154 1.675.413l1.89 1.201c.707.45 1.63.697 2.598.697.964 0 1.884-.246 2.59-.692l2.799-1.773c.24-.152.53-.232.84-.232.508 0 .984.21 1.275.565l3.478 4.228c.496.603.46 1.63-.077 2.2zm-6.484 11.075c-.456.432-1.28.367-1.8-.139l-4.207-4.135a1.067 1.067 0 0 0-.548-.287 1.086 1.086 0 0 0-.955.284 1.023 1.023 0 0 0-.004 1.47l4.204 4.13a.218.218 0 0 0 .012.011l.195.193c.245.24.376.556.37.888-.008.333-.153.642-.44.9-.549.496-1.46.478-1.988-.04l-3.333-3.27-.47-.46a1.073 1.073 0 0 0-.682-.3c-.023-.002-.046-.006-.069-.006-.028 0-.056.004-.084.007-.04.003-.08.004-.119.011a1.057 1.057 0 0 0-.345.133c-.012.007-.025.01-.037.018-.01.007-.017.015-.026.022a.99.99 0 0 0-.141.11 1.027 1.027 0 0 0-.162.21 1.015 1.015 0 0 0-.097.841c.05.153.132.298.256.42l3.223 3.163c.265.261.416.609.412.955a1.038 1.038 0 0 1-.321.754c-.469.442-1.3.383-1.815-.126l-2.422-2.395a1.06 1.06 0 0 0-.126-.102c-.012-.01-.024-.021-.038-.03-.036-.025-.076-.042-.115-.061-.024-.012-.045-.026-.07-.037-.03-.012-.063-.02-.095-.028-.034-.01-.066-.023-.1-.03-.025-.005-.05-.004-.074-.008-.043-.005-.086-.012-.13-.013-.019 0-.037.004-.055.005-.05.002-.1.004-.149.013-.015.003-.029.009-.044.013a1.071 1.071 0 0 0-.153.043c-.014.005-.028.014-.041.02-.05.023-.099.045-.144.074-.025.015-.047.037-.07.054-.033.025-.066.047-.096.075l-.001.002s-.002 0-.002.002c-.031.03-.056.063-.082.096-.017.021-.038.041-.054.064-.026.037-.044.078-.065.118-.01.02-.025.04-.034.062-.017.04-.027.082-.038.124-.007.023-.017.044-.022.067-.008.039-.009.078-.012.117-.003.028-.008.054-.009.082 0 .035.006.068.009.102.003.033.003.065.01.097.006.032.018.063.026.094.01.034.017.067.03.1.014.033.035.066.053.099.014.027.025.056.043.08.025.04.058.075.09.111.015.017.026.036.044.053l.001.002h.001l.026.028 1.24 1.234c.251.251.166.893-.324 1.375a1.142 1.142 0 0 1-.807.316h-.002c-.36 0-.718-.148-.983-.408l-1.48-1.445a3.328 3.328 0 0 0-.52-4.14l-.075-.075a3.476 3.476 0 0 0-2.395-.987 3.335 3.335 0 0 0-1.01-2.343l-.08-.078a3.463 3.463 0 0 0-1.872-.94 3.327 3.327 0 0 0-.966-2.927l-.078-.077a3.484 3.484 0 0 0-2.45-.99l-.06.003a3.337 3.337 0 0 0-1.003-2.217l-.08-.076a3.483 3.483 0 0 0-2.45-.99c-.928 0-1.797.352-2.45.99l-.138.134-2.482-2.071a1.383 1.383 0 0 1-.183-1.913l3.478-4.229c.519-.631 1.627-.874 2.373-.52l2.075.985c1.506.715 3.802.606 5.23-.248l.73-.436c.868-.519 2.477-.7 3.443-.388l.097.032-.431.226c-1.642.862-2.376 2.922-1.636 4.593l.044.1c.56 1.265 1.842 2.081 3.265 2.081.445 0 .88-.081 1.292-.241l1.21-.472c.776-.303 1.374-.455 1.697-.513l1.75 1.68 4.157 3.99 4.633 4.467c.27.26.425.607.423.95a.975.975 0 0 1-.303.718zm-20.68 6.6l-.077-.076a1.29 1.29 0 0 1 0-1.852l1.53-1.495c.25-.246.587-.381.947-.381s.696.135.948.382l.077.075c.251.245.39.575.39.926 0 .352-.139.68-.39.927l-1.53 1.494c-.502.491-1.39.492-1.895 0zm-4.546-2.372l-.077-.075a1.29 1.29 0 0 1-.006-1.843l2.607-2.549c.25-.24.582-.373.937-.373.36 0 .696.136.946.38l.08.078a1.29 1.29 0 0 1 0 1.852l-2.59 2.532c-.503.49-1.39.493-1.897-.002zm-3.919-2.96l-.078-.077a1.29 1.29 0 0 1 0-1.852l.896-.877c.019-.017.04-.033.058-.051l2.525-2.467.05-.056.065-.064c.251-.245.588-.38.947-.38.36 0 .696.135.947.38l.079.077c.251.246.39.575.39.927 0 .351-.139.68-.39.926l-.54.528-.02.017-2.59 2.532-.015.017-.429.419c-.502.492-1.393.492-1.895 0zm-2.6-4.403a1.292 1.292 0 0 1 0-1.853l2.524-2.468c.251-.245.587-.38.947-.38s.696.135.947.38l.079.077a1.29 1.29 0 0 1 .024 1.823l-2.575 2.518c-.507.468-1.372.464-1.869-.022l-.077-.075zM44.173 5.569l-3.478-4.228C40.005.501 38.908 0 37.763 0c-.721 0-1.412.197-1.997.567l-2.798 1.772c-.722.457-2.152.456-2.874-.002l-1.889-1.201c-.762-.484-1.768-.75-2.834-.75-.889 0-1.712.185-2.38.536l-.553.29L20.425.56c-1.543-.498-3.835-.24-5.22.589l-.73.437c-.812.486-2.334.557-3.19.15L9.21.752C7.569-.027 5.39.451 4.25 1.84L.772 6.068c-1.188 1.443-.982 3.595.46 4.796l2.355 1.965-.88.86a3.339 3.339 0 0 0 .002 4.793l.077.075a3.45 3.45 0 0 0 1.577.878 3.338 3.338 0 0 0 .867 3.371l.078.077a3.482 3.482 0 0 0 2.867.963c.1.704.424 1.384.977 1.925l.077.074a3.48 3.48 0 0 0 2.45.99 3.55 3.55 0 0 0 1.13-.186c.154.546.448 1.062.886 1.492l.078.076a3.484 3.484 0 0 0 2.45.989c.928 0 1.799-.351 2.452-.99l.619-.604 1.403 1.371A3.59 3.59 0 0 0 23.184 30h.005a3.277 3.277 0 0 0 2.311-.93c.34-.333.595-.713.774-1.112.54.296 1.137.448 1.73.448.828 0 1.646-.292 2.271-.88.484-.456.797-1.04.916-1.683a3.66 3.66 0 0 0 3.066-.881 3.248 3.248 0 0 0 1.09-2.356c.002-.037-.002-.072-.003-.109.767-.036 1.511-.311 2.088-.854.61-.575.948-1.357.953-2.203.005-.872-.359-1.734-.998-2.38a3.401 3.401 0 0 0 1.153-.798l5.46-5.78c1.263-1.337 1.34-3.495.173-4.913z" fill="#676363" fill-rule="evenodd"/></svg>