<svg width="107" height="66" xmlns="http://www.w3.org/2000/svg"><defs><linearGradient x1="100%" y1="96.452%" x2="6.493%" y2="36.482%" id="a"><stop stop-color="#DCFE81" offset="0%"/><stop stop-color="#A5CD38" offset="100%"/></linearGradient></defs><path d="M1054.16 189.84c-2.88.32-5.8.8-8.76 1.44-2.96.64-5.68 1.48-8.16 2.52-2.48 1.04-4.64 2.36-6.48 3.96-1.84 1.6-3.08 3.36-3.72 5.28 4.16.48 7.48 2.16 9.96 5.04 2.48 2.88 3.72 6.48 3.72 10.8 0 5.92-1.96 10.88-5.88 14.88s-8.76 6-14.52 6c-5.6 0-9.72-1.96-12.36-5.88-2.64-3.92-3.96-8.84-3.96-14.76 0-5.28.96-10.52 2.88-15.72 1.92-5.2 4.84-9.88 8.76-14.04 3.92-4.16 8.92-7.6 15-10.32 6.08-2.72 13.36-4.4 21.84-5.04l1.68 15.84zm55.92 0c-2.88.32-5.76.8-8.64 1.44-2.88.64-5.56 1.48-8.04 2.52-2.48 1.04-4.64 2.36-6.48 3.96-1.84 1.6-3.08 3.36-3.72 5.28 4.16.48 7.44 2.16 9.84 5.04 2.4 2.88 3.6 6.48 3.6 10.8 0 5.92-1.96 10.88-5.88 14.88s-8.76 6-14.52 6c-5.6 0-9.68-1.96-12.24-5.88-2.56-3.92-3.84-8.84-3.84-14.76 0-5.28.92-10.52 2.76-15.72 1.84-5.2 4.76-9.88 8.76-14.04 4-4.16 9-7.6 15-10.32 6-2.72 13.24-4.4 21.72-5.04l1.68 15.84z" transform="rotate(180 555.04 119.88)" fill="url(#a)"/></svg>