<svg width="199" height="23" xmlns="http://www.w3.org/2000/svg" xmlns:xlink="http://www.w3.org/1999/xlink"><defs><path id="a" d="M.242.024h17.626v22.21H.242z"/><path id="c" d="M.01.024H16.7v22.21H.01z"/><path id="e" d="M.38.024h17.625v22.21H.38z"/><path id="g" d="M.193.024h16.854v22.21H.193z"/><path d="M0 1.741c0 .836.68 1.514 1.517 1.514.838 0 1.518-.678 1.518-1.514S2.355.227 1.517.227 0 .905 0 1.74" id="i"/><linearGradient x1="113.88%" y1="-15.982%" x2="-377.885%" y2="491.948%" id="j"><stop stop-color="#A5CD38" offset="0%"/><stop stop-color="#354920" offset="100%"/></linearGradient><path d="M0 1.85c0 .836.68 1.514 1.517 1.514.838 0 1.518-.678 1.518-1.514S2.355.336 1.517.336 0 1.014 0 1.85" id="l"/><linearGradient x1="191.588%" y1="-96.224%" x2="-300.177%" y2="411.641%" id="m"><stop stop-color="#A5CD38" offset="0%"/><stop stop-color="#354920" offset="100%"/></linearGradient><path d="M0 1.575C0 2.412.68 3.09 1.517 3.09c.838 0 1.518-.678 1.518-1.514 0-.837-.68-1.514-1.518-1.514S0 .739 0 1.575" id="o"/><linearGradient x1="269.296%" y1="-176.504%" x2="-222.469%" y2="331.425%" id="p"><stop stop-color="#A5CD38" offset="0%"/><stop stop-color="#354920" offset="100%"/></linearGradient><path d="M0 1.575C0 2.412.68 3.09 1.517 3.09c.838 0 1.518-.678 1.518-1.514 0-.837-.68-1.514-1.518-1.514S0 .739 0 1.575" id="r"/><path d="M0 1.685c0 .836.68 1.514 1.517 1.514.838 0 1.518-.678 1.518-1.514a1.517 1.517 0 0 0-3.035 0" id="t"/><linearGradient x1="347.004%" y1="-256.772%" x2="-144.761%" y2="251.158%" id="u"><stop stop-color="#A5CD38" offset="0%"/><stop stop-color="#354920" offset="100%"/></linearGradient><path d="M0 1.685c0 .836.68 1.514 1.517 1.514.838 0 1.518-.678 1.518-1.514a1.517 1.517 0 0 0-3.035 0" id="w"/><path d="M0 1.794c0 .836.68 1.514 1.517 1.514.838 0 1.518-.678 1.518-1.514S2.355.28 1.517.28 0 .958 0 1.794" id="y"/><linearGradient x1="424.713%" y1="-337.026%" x2="-67.052%" y2="170.903%" id="z"><stop stop-color="#A5CD38" offset="0%"/><stop stop-color="#354920" offset="100%"/></linearGradient><path d="M.231 1.741c0 .836.68 1.514 1.517 1.514.839 0 1.518-.678 1.518-1.514S2.586.227 1.748.227.231.905.231 1.74" id="B"/><linearGradient x1="43.135%" y1="57.09%" x2="-448.63%" y2="565.019%" id="C"><stop stop-color="#A5CD38" offset="0%"/><stop stop-color="#354920" offset="100%"/></linearGradient><path d="M.231 1.85c0 .836.68 1.514 1.517 1.514.839 0 1.518-.678 1.518-1.514S2.586.336 1.748.336.231 1.014.231 1.85" id="E"/><linearGradient x1="120.844%" y1="-23.162%" x2="-370.922%" y2="484.703%" id="F"><stop stop-color="#A5CD38" offset="0%"/><stop stop-color="#354920" offset="100%"/></linearGradient><path d="M.231 1.85c0 .836.68 1.514 1.517 1.514.839 0 1.518-.678 1.518-1.514S2.586.336 1.748.336.231 1.014.231 1.85" id="H"/><path d="M.231 1.575c0 .837.68 1.515 1.517 1.515.839 0 1.518-.678 1.518-1.514 0-.837-.68-1.514-1.518-1.514S.231.739.231 1.575" id="J"/><linearGradient x1="198.552%" y1="-103.432%" x2="-293.213%" y2="404.497%" id="K"><stop stop-color="#A5CD38" offset="0%"/><stop stop-color="#354920" offset="100%"/></linearGradient><path d="M.231 1.575c0 .837.68 1.515 1.517 1.515.839 0 1.518-.678 1.518-1.514 0-.837-.68-1.514-1.518-1.514S.231.739.231 1.575" id="M"/><path d="M.231 1.685c0 .836.68 1.514 1.517 1.514a1.516 1.516 0 1 0 0-3.029C.91.17.231.849.231 1.685" id="O"/><linearGradient x1="276.26%" y1="-183.7%" x2="-215.505%" y2="324.23%" id="P"><stop stop-color="#A5CD38" offset="0%"/><stop stop-color="#354920" offset="100%"/></linearGradient><path d="M.231 1.685c0 .836.68 1.514 1.517 1.514a1.516 1.516 0 1 0 0-3.029C.91.17.231.849.231 1.685" id="R"/><path d="M.231 1.794c0 .836.68 1.514 1.517 1.514.839 0 1.518-.678 1.518-1.514S2.586.28 1.748.28.231.958.231 1.794" id="T"/><linearGradient x1="353.968%" y1="-263.955%" x2="-137.797%" y2="243.975%" id="U"><stop stop-color="#A5CD38" offset="0%"/><stop stop-color="#354920" offset="100%"/></linearGradient><path d="M.079 1.741c0 .836.679 1.514 1.517 1.514.838 0 1.517-.678 1.517-1.514S2.433.227 1.596.227C.758.227.079.905.079 1.74" id="W"/><linearGradient x1="-27.626%" y1="130.182%" x2="-519.453%" y2="638.24%" id="X"><stop stop-color="#A5CD38" offset="0%"/><stop stop-color="#354920" offset="100%"/></linearGradient><path d="M.079 1.85c0 .836.679 1.514 1.517 1.514.838 0 1.517-.678 1.517-1.514a1.516 1.516 0 0 0-3.034 0" id="Z"/><linearGradient x1="50.092%" y1="49.901%" x2="-441.735%" y2="557.894%" id="aa"><stop stop-color="#A5CD38" offset="0%"/><stop stop-color="#354920" offset="100%"/></linearGradient><path d="M.079 1.85c0 .836.679 1.514 1.517 1.514.838 0 1.517-.678 1.517-1.514a1.516 1.516 0 0 0-3.034 0" id="ac"/><path d="M.079 1.575c0 .837.679 1.515 1.517 1.515.838 0 1.517-.678 1.517-1.514 0-.837-.68-1.514-1.517-1.514C.758.062.079.739.079 1.575" id="ae"/><linearGradient x1="127.81%" y1="-30.381%" x2="-364.017%" y2="477.677%" id="af"><stop stop-color="#A5CD38" offset="0%"/><stop stop-color="#354920" offset="100%"/></linearGradient><path d="M.079 1.575c0 .837.679 1.515 1.517 1.515.838 0 1.517-.678 1.517-1.514 0-.837-.68-1.514-1.517-1.514C.758.062.079.739.079 1.575" id="ah"/><path d="M.079 1.685c0 .836.679 1.514 1.517 1.514a1.515 1.515 0 1 0 0-3.029A1.517 1.517 0 0 0 .079 1.685" id="aj"/><linearGradient x1="205.528%" y1="-110.669%" x2="-286.299%" y2="397.389%" id="ak"><stop stop-color="#A5CD38" offset="0%"/><stop stop-color="#354920" offset="100%"/></linearGradient><path d="M.079 1.685c0 .836.679 1.514 1.517 1.514a1.515 1.515 0 1 0 0-3.029A1.517 1.517 0 0 0 .079 1.685" id="am"/><path d="M.079 1.794c0 .836.679 1.514 1.517 1.514.838 0 1.517-.678 1.517-1.514a1.516 1.516 0 0 0-3.034 0" id="ao"/><linearGradient x1="283.246%" y1="-190.944%" x2="-208.581%" y2="317.114%" id="ap"><stop stop-color="#A5CD38" offset="0%"/><stop stop-color="#354920" offset="100%"/></linearGradient><path d="M.31 1.741c0 .836.679 1.514 1.517 1.514.838 0 1.517-.678 1.517-1.514S2.665.227 1.827.227C.99.227.31.905.31 1.74" id="ar"/><linearGradient x1="-98.379%" y1="203.272%" x2="-590.207%" y2="711.33%" id="as"><stop stop-color="#A5CD38" offset="0%"/><stop stop-color="#354920" offset="100%"/></linearGradient><path d="M.31 1.85c0 .836.679 1.514 1.517 1.514.838 0 1.517-.678 1.517-1.514S2.665.336 1.827.336C.99.336.31 1.014.31 1.85" id="au"/><linearGradient x1="-20.661%" y1="122.982%" x2="-512.489%" y2="630.975%" id="av"><stop stop-color="#A5CD38" offset="0%"/><stop stop-color="#354920" offset="100%"/></linearGradient><path d="M.31 1.85c0 .836.679 1.514 1.517 1.514.838 0 1.517-.678 1.517-1.514S2.665.336 1.827.336C.99.336.31 1.014.31 1.85" id="ax"/><path d="M.31 1.575c0 .837.679 1.515 1.517 1.515a1.515 1.515 0 0 0 0-3.028C.99.062.31.739.31 1.575" id="az"/><linearGradient x1="57.057%" y1="42.709%" x2="-434.771%" y2="550.767%" id="aA"><stop stop-color="#A5CD38" offset="0%"/><stop stop-color="#354920" offset="100%"/></linearGradient><path d="M.31 1.575c0 .837.679 1.515 1.517 1.515a1.515 1.515 0 0 0 0-3.028C.99.062.31.739.31 1.575" id="aC"/><path d="M.31 1.685c0 .836.679 1.514 1.517 1.514a1.515 1.515 0 1 0 0-3.029A1.518 1.518 0 0 0 .31 1.685" id="aE"/><linearGradient x1="134.775%" y1="-37.579%" x2="-357.053%" y2="470.48%" id="aF"><stop stop-color="#A5CD38" offset="0%"/><stop stop-color="#354920" offset="100%"/></linearGradient><path d="M.31 1.685c0 .836.679 1.514 1.517 1.514a1.515 1.515 0 1 0 0-3.029A1.518 1.518 0 0 0 .31 1.685" id="aH"/><path d="M.31 1.794c0 .836.679 1.514 1.517 1.514.838 0 1.517-.678 1.517-1.514S2.665.28 1.827.28C.99.28.31.958.31 1.794" id="aJ"/><linearGradient x1="212.493%" y1="-117.854%" x2="-279.335%" y2="390.204%" id="aK"><stop stop-color="#A5CD38" offset="0%"/><stop stop-color="#354920" offset="100%"/></linearGradient><path d="M.157 1.741a1.516 1.516 0 0 0 3.034 0c0-.836-.679-1.514-1.517-1.514C.836.227.157.905.157 1.74" id="aM"/><linearGradient x1="-169.133%" y1="276.362%" x2="-660.96%" y2="784.421%" id="aN"><stop stop-color="#A5CD38" offset="0%"/><stop stop-color="#354920" offset="100%"/></linearGradient><path d="M.157 1.85a1.516 1.516 0 0 0 3.034 0c0-.836-.679-1.514-1.517-1.514C.836.336.157 1.014.157 1.85" id="aP"/><linearGradient x1="-91.415%" y1="196.062%" x2="-583.242%" y2="704.056%" id="aQ"><stop stop-color="#A5CD38" offset="0%"/><stop stop-color="#354920" offset="100%"/></linearGradient><path d="M.157 1.85a1.516 1.516 0 0 0 3.034 0c0-.836-.679-1.514-1.517-1.514C.836.336.157 1.014.157 1.85" id="aS"/><path d="M.157 1.575a1.516 1.516 0 0 0 3.034.001c0-.837-.679-1.514-1.517-1.514C.836.062.157.739.157 1.575" id="aU"/><linearGradient x1="-13.697%" y1="115.8%" x2="-505.524%" y2="623.858%" id="aV"><stop stop-color="#A5CD38" offset="0%"/><stop stop-color="#354920" offset="100%"/></linearGradient><path d="M.157 1.575a1.516 1.516 0 0 0 3.034.001c0-.837-.679-1.514-1.517-1.514C.836.062.157.739.157 1.575" id="aX"/><path d="M.157 1.685a1.516 1.516 0 0 0 3.034 0 1.516 1.516 0 0 0-3.034 0" id="aZ"/><linearGradient x1="64.021%" y1="35.512%" x2="-427.806%" y2="543.57%" id="ba"><stop stop-color="#A5CD38" offset="0%"/><stop stop-color="#354920" offset="100%"/></linearGradient><path d="M.157 1.685a1.516 1.516 0 0 0 3.034 0 1.516 1.516 0 0 0-3.034 0" id="bc"/><path d="M.157 1.794a1.516 1.516 0 0 0 3.034 0C3.191.958 2.512.28 1.674.28.836.28.157.958.157 1.794" id="be"/><linearGradient x1="141.739%" y1="-44.763%" x2="-350.088%" y2="463.295%" id="bf"><stop stop-color="#A5CD38" offset="0%"/><stop stop-color="#354920" offset="100%"/></linearGradient></defs><g fill="none" fill-rule="evenodd"><path d="M41.438 7.88c0 3.148-1.636 3.409-3.457 3.409h-4.27V4.47h4.27c1.821 0 3.457.26 3.457 3.409M38.02.586h-6.378c-1.163 0-2.11.926-2.11 2.064v17.676c0 1.157.909 2.064 2.068 2.064 1.164 0 2.11-.926 2.11-2.064v-5.152h4.31c3.426 0 7.31 0 7.31-7.294S41.447.586 38.02.586m21.7 7.294c0 3.148-1.635 3.409-3.457 3.409h-4.839V4.47h4.839c1.822 0 3.457.26 3.457 3.409m3.893 0c0-7.294-3.883-7.294-7.31-7.294h-6.947c-1.163 0-2.11.926-2.11 2.064v17.676c0 1.157.91 2.064 2.07 2.064 1.162 0 2.108-.926 2.108-2.064v-5.152h4.88c.367 0 .722 0 1.075-.011l1.893 5.852c.27.81 1.072 1.375 1.947 1.375 1.157 0 2.029-.87 2.029-2.024 0-.213-.04-.44-.118-.678l-1.696-5.556c1.502-1.104 2.18-3.069 2.18-6.252" fill="#A5CD39"/><g transform="translate(65.693 .36)"><mask id="b" fill="#fff"><use xlink:href="#a"/></mask><path d="M4.42 8.413c0-3.57.183-4.504 4.635-4.504 4.451 0 4.635.934 4.635 4.504v5.432c0 3.57-.184 4.504-4.635 4.504-4.452 0-4.636-.934-4.636-4.504V8.413zM9.054.024C.242.024.242 3.69.242 8.332v5.594c0 4.641 0 8.307 8.813 8.307s8.813-3.666 8.813-8.307V8.332c0-4.642 0-8.308-8.813-8.308z" fill="#A5CD39" mask="url(#b)"/></g><g transform="translate(85.67 .36)"><mask id="d" fill="#fff"><use xlink:href="#c"/></mask><path d="M8.79 8.9c-2.367-.68-4.603-1.324-4.603-2.554 0-1.525 1.672-2.436 4.473-2.436 1.805 0 3.965.212 5.136.504l.092.023h.094c1.046 0 1.866-.853 1.866-1.943 0-.911-.596-1.685-1.444-1.88C12.578.178 10.197.023 8.579.023c-2.12 0-8.57 0-8.57 6.32 0 4.364 4.461 5.643 8.045 6.671 2.298.66 4.47 1.282 4.47 2.411 0 2.049-1.217 2.923-4.067 2.923-1.457 0-3.663-.135-5.995-1.298l-.162-.08h-.18c-1.16 0-2.069.906-2.069 2.063 0 .83.407 1.508 1.098 1.853 2.46 1.309 6.82 1.346 7.309 1.346 2.881 0 8.244 0 8.244-6.807 0-4.247-4.386-5.51-7.91-6.525" fill="#A5CD39" mask="url(#d)"/></g><g transform="translate(104.11 .36)"><mask id="f" fill="#fff"><use xlink:href="#e"/></mask><path d="M4.557 8.413c0-3.57.184-4.504 4.635-4.504 4.452 0 4.636.934 4.636 4.504v5.432c0 3.57-.184 4.504-4.636 4.504-4.451 0-4.635-.934-4.635-4.504V8.413zM9.192.024C.38.024.38 3.69.38 8.332v5.594c0 4.641 0 8.307 8.812 8.307 8.813 0 8.813-3.666 8.813-8.307V8.332c0-4.642 0-8.308-8.813-8.308z" fill="#A5CD39" mask="url(#f)"/></g><path d="M140.482.586c-1.16 0-2.068.907-2.068 2.064v11.554c0 3.57-.18 4.504-4.554 4.504-4.452 0-4.636-.934-4.636-4.504V2.65c0-1.138-.946-2.064-2.109-2.064-1.16 0-2.068.907-2.068 2.064v11.635c0 4.642 0 8.307 8.813 8.307 8.731 0 8.731-3.665 8.731-8.307V2.65c0-1.138-.946-2.064-2.109-2.064m17.92 7.294c0 3.148-1.635 3.409-3.457 3.409h-4.838V4.47h4.838c1.822 0 3.457.26 3.457 3.409m3.894 0c0-7.294-3.884-7.294-7.31-7.294h-6.948c-1.163 0-2.109.926-2.109 2.064v17.676c0 1.157.909 2.064 2.069 2.064 1.162 0 2.109-.926 2.109-2.064v-5.152h4.879c.367 0 .722 0 1.075-.011l1.893 5.852c.271.81 1.072 1.375 1.948 1.375 1.156 0 2.028-.87 2.028-2.024 0-.213-.04-.441-.117-.678l-1.697-5.556c1.502-1.104 2.18-3.069 2.18-6.252" fill="#A5CD39"/><g transform="translate(164.425 .36)"><mask id="h" fill="#fff"><use xlink:href="#g"/></mask><path d="M9.534 3.909c1.598 0 3.993.175 5.48.508l.168.019c1.046 0 1.865-.853 1.865-1.942 0-.912-.596-1.686-1.451-1.883-1.91-.433-4.416-.587-5.98-.587C3.362.024.192 2.806.192 8.291v5.675c0 5.486 3.17 8.267 9.422 8.267 1.546 0 3.9-.166 5.693-.537 1.042-.138 1.74-.927 1.74-1.973 0-.81-.499-1.744-1.45-1.963l-.18-.041-.178.045c-1.47.366-4.056.585-5.706.585-2.57 0-5.163-1.268-5.163-4.098V8.007c0-2.83 2.593-4.098 5.163-4.098" fill="#A5CD39" mask="url(#h)"/></g><path d="M196.995 18.505h-9.024V13.43h7.683c1.055 0 1.946-.89 1.946-1.942a1.947 1.947 0 0 0-1.946-1.943h-7.683V4.471h9.024c1.055 0 1.946-.89 1.946-1.943a1.946 1.946 0 0 0-1.946-1.942h-11.092c-1.163 0-2.11.926-2.11 2.064v17.676c0 1.138.947 2.064 2.11 2.064h11.092c1.055 0 1.946-.89 1.946-1.943a1.946 1.946 0 0 0-1.946-1.942" fill="#A5CD39"/><g transform="translate(0 .36)"><mask id="k" fill="#fff"><use xlink:href="#i"/></mask><path d="M0 1.741c0 .836.68 1.514 1.517 1.514.838 0 1.518-.678 1.518-1.514S2.355.227 1.517.227 0 .905 0 1.74" fill="url(#j)" mask="url(#k)"/></g><g transform="translate(0 4.96)"><mask id="n" fill="#fff"><use xlink:href="#l"/></mask><path d="M0 1.85c0 .836.68 1.514 1.517 1.514.838 0 1.518-.678 1.518-1.514S2.355.336 1.517.336 0 1.014 0 1.85" fill="url(#m)" mask="url(#n)"/></g><g transform="translate(0 9.943)"><mask id="q" fill="#fff"><use xlink:href="#o"/></mask><path d="M0 1.575C0 2.412.68 3.09 1.517 3.09c.838 0 1.518-.678 1.518-1.514 0-.837-.68-1.514-1.518-1.514S0 .739 0 1.575" fill="url(#p)" mask="url(#q)"/></g><g transform="translate(0 9.943)"><mask id="s" fill="#fff"><use xlink:href="#r"/></mask><path d="M0 1.575C0 2.412.68 3.09 1.517 3.09c.838 0 1.518-.678 1.518-1.514 0-.837-.68-1.514-1.518-1.514S0 .739 0 1.575" fill="url(#p)" mask="url(#s)"/></g><g transform="translate(0 14.543)"><mask id="v" fill="#fff"><use xlink:href="#t"/></mask><path d="M0 1.685c0 .836.68 1.514 1.517 1.514.838 0 1.518-.678 1.518-1.514a1.517 1.517 0 0 0-3.035 0" fill="url(#u)" mask="url(#v)"/></g><g transform="translate(0 14.543)"><mask id="x" fill="#fff"><use xlink:href="#w"/></mask><path d="M0 1.685c0 .836.68 1.514 1.517 1.514.838 0 1.518-.678 1.518-1.514a1.517 1.517 0 0 0-3.035 0" fill="url(#u)" mask="url(#x)"/></g><g transform="translate(0 19.143)"><mask id="A" fill="#fff"><use xlink:href="#y"/></mask><path d="M0 1.794c0 .836.68 1.514 1.517 1.514.838 0 1.518-.678 1.518-1.514S2.355.28 1.517.28 0 .958 0 1.794" fill="url(#z)" mask="url(#A)"/></g><g transform="translate(4.226 .36)"><mask id="D" fill="#fff"><use xlink:href="#B"/></mask><path d="M.231 1.741c0 .836.68 1.514 1.517 1.514.839 0 1.518-.678 1.518-1.514S2.586.227 1.748.227.231.905.231 1.74" fill="url(#C)" mask="url(#D)"/></g><g transform="translate(4.226 4.96)"><mask id="G" fill="#fff"><use xlink:href="#E"/></mask><path d="M.231 1.85c0 .836.68 1.514 1.517 1.514.839 0 1.518-.678 1.518-1.514S2.586.336 1.748.336.231 1.014.231 1.85" fill="url(#F)" mask="url(#G)"/></g><g transform="translate(4.226 4.96)"><mask id="I" fill="#fff"><use xlink:href="#H"/></mask><path d="M.231 1.85c0 .836.68 1.514 1.517 1.514.839 0 1.518-.678 1.518-1.514S2.586.336 1.748.336.231 1.014.231 1.85" fill="url(#F)" mask="url(#I)"/></g><g transform="translate(4.226 9.943)"><mask id="L" fill="#fff"><use xlink:href="#J"/></mask><path d="M.231 1.575c0 .837.68 1.515 1.517 1.515.839 0 1.518-.678 1.518-1.514 0-.837-.68-1.514-1.518-1.514S.231.739.231 1.575" fill="url(#K)" mask="url(#L)"/></g><g transform="translate(4.226 9.943)"><mask id="N" fill="#fff"><use xlink:href="#M"/></mask><path d="M.231 1.575c0 .837.68 1.515 1.517 1.515.839 0 1.518-.678 1.518-1.514 0-.837-.68-1.514-1.518-1.514S.231.739.231 1.575" fill="url(#K)" mask="url(#N)"/></g><g transform="translate(4.226 14.543)"><mask id="Q" fill="#fff"><use xlink:href="#O"/></mask><path d="M.231 1.685c0 .836.68 1.514 1.517 1.514a1.516 1.516 0 1 0 0-3.029C.91.17.231.849.231 1.685" fill="url(#P)" mask="url(#Q)"/></g><g transform="translate(4.226 14.543)"><mask id="S" fill="#fff"><use xlink:href="#R"/></mask><path d="M.231 1.685c0 .836.68 1.514 1.517 1.514a1.516 1.516 0 1 0 0-3.029C.91.17.231.849.231 1.685" fill="url(#P)" mask="url(#S)"/></g><g transform="translate(4.226 19.143)"><mask id="V" fill="#fff"><use xlink:href="#T"/></mask><path d="M.231 1.794c0 .836.68 1.514 1.517 1.514.839 0 1.518-.678 1.518-1.514S2.586.28 1.748.28.231.958.231 1.794" fill="url(#U)" mask="url(#V)"/></g><g transform="translate(8.836 .36)"><mask id="Y" fill="#fff"><use xlink:href="#W"/></mask><path d="M.079 1.741c0 .836.679 1.514 1.517 1.514.838 0 1.517-.678 1.517-1.514S2.433.227 1.596.227C.758.227.079.905.079 1.74" fill="url(#X)" mask="url(#Y)"/></g><g transform="translate(8.836 4.96)"><mask id="ab" fill="#fff"><use xlink:href="#Z"/></mask><path d="M.079 1.85c0 .836.679 1.514 1.517 1.514.838 0 1.517-.678 1.517-1.514a1.516 1.516 0 0 0-3.034 0" fill="url(#aa)" mask="url(#ab)"/></g><g transform="translate(8.836 4.96)"><mask id="ad" fill="#fff"><use xlink:href="#ac"/></mask><path d="M.079 1.85c0 .836.679 1.514 1.517 1.514.838 0 1.517-.678 1.517-1.514a1.516 1.516 0 0 0-3.034 0" fill="url(#aa)" mask="url(#ad)"/></g><g transform="translate(8.836 9.943)"><mask id="ag" fill="#fff"><use xlink:href="#ae"/></mask><path d="M.079 1.575c0 .837.679 1.515 1.517 1.515.838 0 1.517-.678 1.517-1.514 0-.837-.68-1.514-1.517-1.514C.758.062.079.739.079 1.575" fill="url(#af)" mask="url(#ag)"/></g><g transform="translate(8.836 9.943)"><mask id="ai" fill="#fff"><use xlink:href="#ah"/></mask><path d="M.079 1.575c0 .837.679 1.515 1.517 1.515.838 0 1.517-.678 1.517-1.514 0-.837-.68-1.514-1.517-1.514C.758.062.079.739.079 1.575" fill="url(#af)" mask="url(#ai)"/></g><g transform="translate(8.836 14.543)"><mask id="al" fill="#fff"><use xlink:href="#aj"/></mask><path d="M.079 1.685c0 .836.679 1.514 1.517 1.514a1.515 1.515 0 1 0 0-3.029A1.517 1.517 0 0 0 .079 1.685" fill="url(#ak)" mask="url(#al)"/></g><g transform="translate(8.836 14.543)"><mask id="an" fill="#fff"><use xlink:href="#am"/></mask><path d="M.079 1.685c0 .836.679 1.514 1.517 1.514a1.515 1.515 0 1 0 0-3.029A1.517 1.517 0 0 0 .079 1.685" fill="url(#ak)" mask="url(#an)"/></g><g transform="translate(8.836 19.143)"><mask id="aq" fill="#fff"><use xlink:href="#ao"/></mask><path d="M.079 1.794c0 .836.679 1.514 1.517 1.514.838 0 1.517-.678 1.517-1.514a1.516 1.516 0 0 0-3.034 0" fill="url(#ap)" mask="url(#aq)"/></g><g transform="translate(13.062 .36)"><mask id="at" fill="#fff"><use xlink:href="#ar"/></mask><path d="M.31 1.741c0 .836.679 1.514 1.517 1.514.838 0 1.517-.678 1.517-1.514S2.665.227 1.827.227C.99.227.31.905.31 1.74" fill="url(#as)" mask="url(#at)"/></g><g transform="translate(13.062 4.96)"><mask id="aw" fill="#fff"><use xlink:href="#au"/></mask><path d="M.31 1.85c0 .836.679 1.514 1.517 1.514.838 0 1.517-.678 1.517-1.514S2.665.336 1.827.336C.99.336.31 1.014.31 1.85" fill="url(#av)" mask="url(#aw)"/></g><g transform="translate(13.062 4.96)"><mask id="ay" fill="#fff"><use xlink:href="#ax"/></mask><path d="M.31 1.85c0 .836.679 1.514 1.517 1.514.838 0 1.517-.678 1.517-1.514S2.665.336 1.827.336C.99.336.31 1.014.31 1.85" fill="url(#av)" mask="url(#ay)"/></g><g transform="translate(13.062 9.943)"><mask id="aB" fill="#fff"><use xlink:href="#az"/></mask><path d="M.31 1.575c0 .837.679 1.515 1.517 1.515a1.515 1.515 0 0 0 0-3.028C.99.062.31.739.31 1.575" fill="url(#aA)" mask="url(#aB)"/></g><g transform="translate(13.062 9.943)"><mask id="aD" fill="#fff"><use xlink:href="#aC"/></mask><path d="M.31 1.575c0 .837.679 1.515 1.517 1.515a1.515 1.515 0 0 0 0-3.028C.99.062.31.739.31 1.575" fill="url(#aA)" mask="url(#aD)"/></g><g transform="translate(13.062 14.543)"><mask id="aG" fill="#fff"><use xlink:href="#aE"/></mask><path d="M.31 1.685c0 .836.679 1.514 1.517 1.514a1.515 1.515 0 1 0 0-3.029A1.518 1.518 0 0 0 .31 1.685" fill="url(#aF)" mask="url(#aG)"/></g><g transform="translate(13.062 14.543)"><mask id="aI" fill="#fff"><use xlink:href="#aH"/></mask><path d="M.31 1.685c0 .836.679 1.514 1.517 1.514a1.515 1.515 0 1 0 0-3.029A1.518 1.518 0 0 0 .31 1.685" fill="url(#aF)" mask="url(#aI)"/></g><g transform="translate(13.062 19.143)"><mask id="aL" fill="#fff"><use xlink:href="#aJ"/></mask><path d="M.31 1.794c0 .836.679 1.514 1.517 1.514.838 0 1.517-.678 1.517-1.514S2.665.28 1.827.28C.99.28.31.958.31 1.794" fill="url(#aK)" mask="url(#aL)"/></g><g transform="translate(17.672 .36)"><mask id="aO" fill="#fff"><use xlink:href="#aM"/></mask><path d="M.157 1.741a1.516 1.516 0 0 0 3.034 0c0-.836-.679-1.514-1.517-1.514C.836.227.157.905.157 1.74" fill="url(#aN)" mask="url(#aO)"/></g><g transform="translate(17.672 4.96)"><mask id="aR" fill="#fff"><use xlink:href="#aP"/></mask><path d="M.157 1.85a1.516 1.516 0 0 0 3.034 0c0-.836-.679-1.514-1.517-1.514C.836.336.157 1.014.157 1.85" fill="url(#aQ)" mask="url(#aR)"/></g><g transform="translate(17.672 4.96)"><mask id="aT" fill="#fff"><use xlink:href="#aS"/></mask><path d="M.157 1.85a1.516 1.516 0 0 0 3.034 0c0-.836-.679-1.514-1.517-1.514C.836.336.157 1.014.157 1.85" fill="url(#aQ)" mask="url(#aT)"/></g><g transform="translate(17.672 9.943)"><mask id="aW" fill="#fff"><use xlink:href="#aU"/></mask><path d="M.157 1.575a1.516 1.516 0 0 0 3.034.001c0-.837-.679-1.514-1.517-1.514C.836.062.157.739.157 1.575" fill="url(#aV)" mask="url(#aW)"/></g><g transform="translate(17.672 9.943)"><mask id="aY" fill="#fff"><use xlink:href="#aX"/></mask><path d="M.157 1.575a1.516 1.516 0 0 0 3.034.001c0-.837-.679-1.514-1.517-1.514C.836.062.157.739.157 1.575" fill="url(#aV)" mask="url(#aY)"/></g><g transform="translate(17.672 14.543)"><mask id="bb" fill="#fff"><use xlink:href="#aZ"/></mask><path d="M.157 1.685a1.516 1.516 0 0 0 3.034 0 1.516 1.516 0 0 0-3.034 0" fill="url(#ba)" mask="url(#bb)"/></g><g transform="translate(17.672 14.543)"><mask id="bd" fill="#fff"><use xlink:href="#bc"/></mask><path d="M.157 1.685a1.516 1.516 0 0 0 3.034 0 1.516 1.516 0 0 0-3.034 0" fill="url(#ba)" mask="url(#bd)"/></g><g transform="translate(17.672 19.143)"><mask id="bg" fill="#fff"><use xlink:href="#be"/></mask><path d="M.157 1.794a1.516 1.516 0 0 0 3.034 0C3.191.958 2.512.28 1.674.28.836.28.157.958.157 1.794" fill="url(#bf)" mask="url(#bg)"/></g></g></svg>