<svg width="953" height="332" xmlns="http://www.w3.org/2000/svg" xmlns:xlink="http://www.w3.org/1999/xlink"><defs><path id="a" d="M0 .12h34.362v32.466H0z"/><path id="c" d="M.243.12h34.361v32.466H.244z"/><path d="M436.894 37.493l3.862 19.71 69.299 75.167 45.405-37.895-39.25-53.355-76.044-2.206c-15.195-1.95-23.141-2.924-23.839-2.924-.458 0-7.14 6.573-20.045 19.718-4.486 4.57-12.908 13.212-25.265 25.927l-3.96 25.748 10.932 52.802 14.26 28.292c26.961 9.107 42.015 14.161 45.16 15.162 4.719 1.502 60.922 2.91 63.928 2.91 3.007 0 32.049-31.15 34.858-32.783 1.873-1.089 6.173-11.143 12.9-30.163l-39.88-6.39c-69.253-28.99-105.886-44.6-109.9-46.829-6.228-3.46-13.702-9.339-14.622-10.386-4.364-4.966 13.036-19.135 52.201-42.505z" id="e"/><path d="M243.29 141.312l1.63 19.577 71.03 76.166 45.406-37.894-39.25-53.355-76.045-2.207c-15.194-1.949-23.14-2.924-23.838-2.924-.458 0-7.14 6.573-20.045 19.719-4.486 4.57-12.908 13.212-25.265 25.926l-3.96 25.749 10.932 52.801 14.26 28.293c26.961 9.107 42.015 14.16 45.16 15.162 4.719 1.502 60.922 2.91 63.928 2.91 3.007 0 32.049-31.15 34.858-32.784 1.873-1.088 6.173-11.143 12.9-30.163l-39.88-6.39c-69.009-28.078-105.52-43.233-109.534-45.462-6.228-3.46-13.702-9.34-14.622-10.386-4.364-4.967 13.081-19.88 52.335-44.738z" id="g"/><path id="i" d="M325.275 218.523l8.697-9.017 27.39-11.835v-21.374l-37.979-16.1z"/><path id="k" d="M519.379 173.428l8.697-16.017 27.39-51.834v5.125l-37.979 9.4z"/><path d="M624.394 141.312l1.63 19.577 71.03 76.166 45.406-37.894-39.25-53.355-76.044-2.207c-15.195-1.949-23.141-2.924-23.839-2.924-.458 0-7.14 6.573-20.045 19.719-4.486 4.57-12.908 13.212-25.265 25.926l-3.96 25.749 10.932 52.801 14.26 28.293c26.961 9.107 42.015 14.16 45.16 15.162 4.719 1.502 60.922 2.91 63.928 2.91 3.007 0 32.049-31.15 34.858-32.784 1.873-1.088 6.173-11.143 12.9-30.163l-39.88-6.39c-69.009-28.078-105.52-43.233-109.534-45.462-6.228-3.46-13.702-9.34-14.622-10.386-4.364-4.967 13.081-19.88 52.335-44.738z" id="m"/><path id="o" d="M706.379 208.523l31.697-6.017 4.39-24.835v-.874l-32.979-13.6z"/><path d="M817.998 37.493l3.862 19.71 58.729 70.64 37.105 41.797 18.87-75.165-39.25-53.355-76.044-2.206c-15.195-1.95-23.141-2.924-23.839-2.924-.458 0-7.14 6.573-20.045 19.718-4.486 4.57-12.908 13.212-25.264 25.927l-3.96 25.748 10.931 52.802 14.26 28.292c26.962 9.107 42.015 14.161 45.16 15.162 4.719 1.502 60.922 2.91 63.928 2.91 3.007 0 32.049-31.15 34.858-32.783 1.117-.649-14.347-26.805-39.75-42.167-38.54-23.307-93.501-39.199-97.13-41.215-6.228-3.46-13.702-9.339-14.621-10.386-4.365-4.966 13.036-19.135 52.2-42.505z" id="q"/><path d="M59.413 62.73l61.142 68.64 45.405-37.895-39.25-53.355-76.044-2.206c-15.195-1.95-23.141-2.924-23.839-2.924-.458 0-7.14 6.573-20.045 19.718-4.486 4.57-12.908 13.212-25.265 25.927l-3.96 25.748 10.932 52.802 14.26 28.292c26.961 9.107 42.015 14.161 45.16 15.162 4.719 1.502 60.922 2.91 63.928 2.91 3.007 0 32.049-31.15 34.858-32.783 1.873-1.089 6.173-11.143 12.9-30.163l-39.88-6.39c-46.286-19.334-71.436-30.116-75.45-32.345-6.227-3.46 9.386-13.617 8.466-14.664-4.364-4.967-2.137-13.791 6.682-26.474z" id="s"/><path id="u" d="M129.879 173.428l8.697-16.017 27.39-36.834-21-10.875-16.979 10.4z"/></defs><g transform="translate(11 -42)" fill="none" fill-rule="evenodd"><g transform="translate(223 220.63)"><mask id="b" fill="#fff"><use xlink:href="#a"/></mask><path d="M4.324 28.362c.515-6.033 5.221-7.909 8.585-8.56l-.014-.005c2.623-.911 1.729-2.569 1.322-3.185-.073-.07-.15-.14-.222-.207-2.34-2.365-4.694-12.06 2.986-12.06 7.687 0 5.468 9.695 3.17 12.06l-.225.207c-.396.616-1.265 2.274 1.352 3.184 3.379.638 8.153 2.504 8.76 8.566H4.324zM25.15 16.471c1.454-3.12 2.165-7.533.615-11.057C24.285 2.05 21.083.121 16.98.121c-4.093 0-7.276 1.921-8.733 5.275-1.538 3.543-.77 7.984.738 11.116C3.7 18.467.483 22.532.016 28.01a4.157 4.157 0 0 0 1.126 3.21 4.37 4.37 0 0 0 3.182 1.365h25.714c1.22 0 2.384-.503 3.203-1.387a4.166 4.166 0 0 0 1.1-3.248c-.55-5.493-3.846-9.554-9.191-11.48z" fill="#676363" mask="url(#b)"/></g><g transform="translate(271.176 220.63)"><mask id="d" fill="#fff"><use xlink:href="#c"/></mask><path d="M4.566 28.362c.608-6.062 5.381-7.928 8.761-8.566 2.616-.91 1.748-2.568 1.351-3.184l-.226-.207c-2.297-2.365-4.515-12.06 3.171-12.06 7.68 0 5.326 9.695 2.986 12.06-.07.068-.148.138-.221.207-.408.616-1.3 2.274 1.322 3.185l-.014.005c3.364.651 8.07 2.527 8.585 8.56H4.566zm21.052-11.85c1.508-3.132 2.277-7.573.738-11.116C24.899 2.042 21.717.121 17.623.121c-4.102 0-7.304 1.928-8.784 5.294-1.549 3.523-.837 7.936.617 11.056C4.11 18.397.813 22.458.264 27.95a4.161 4.161 0 0 0 1.1 3.248 4.367 4.367 0 0 0 3.202 1.387h25.715c1.21 0 2.362-.495 3.183-1.365a4.166 4.166 0 0 0 1.126-3.21c-.468-5.478-3.686-9.544-8.972-11.5z" fill="#676363" mask="url(#d)"/></g><path d="M260.293 203.676c2.617-.911 1.748-2.567 1.352-3.185a18.113 18.113 0 0 1-.226-.207c-2.298-2.365-4.515-12.06 3.17-12.06 7.68 0 5.327 9.695 2.987 12.06-.071.07-.149.14-.223.207-.407.618-1.3 2.275 1.323 3.186l-.015.005c3.365.652 8.071 2.527 8.587 8.56h-25.716c.607-6.063 5.381-7.929 8.761-8.566m-8.76 12.79h10.387v8.14l-8.438 6.35a2.376 2.376 0 0 0-.449 3.386c.486.618 1.218.94 1.958.94a2.49 2.49 0 0 0 1.506-.502l7.894-5.94 7.893 5.94c.45.338.98.5 1.506.5.74 0 1.472-.321 1.958-.94a2.374 2.374 0 0 0-.448-3.384l-8.439-6.351v-8.14h10.387a4.358 4.358 0 0 0 3.18-1.364 4.163 4.163 0 0 0 1.127-3.211c-.467-5.477-3.685-9.544-8.97-11.5 1.508-3.13 2.276-7.571.737-11.115-1.455-3.353-4.639-5.275-8.732-5.275-4.103 0-7.305 1.93-8.785 5.294-1.549 3.525-.837 7.937.617 11.057-5.345 1.926-8.642 5.986-9.192 11.479a4.164 4.164 0 0 0 1.1 3.249 4.37 4.37 0 0 0 3.202 1.386" fill="#676363"/><g fill="#676363"><path d="M444.2 115.797l2.768-3.19c-3.2-2.82-4.96-6.543-4.96-10.484 0-3.94 1.76-7.662 4.959-10.483l-2.768-3.188c-4.123 3.638-6.393 8.494-6.393 13.672 0 5.18 2.271 10.035 6.394 13.673m28.053-27.345l-2.767 3.188c3.198 2.821 4.96 6.543 4.96 10.484 0 3.94-1.762 7.663-4.96 10.484l2.767 3.189c4.125-3.638 6.395-8.494 6.395-13.673s-2.27-10.035-6.395-13.672"/><path d="M430.202 102.124c0-6.781 3.017-13.178 8.498-18.011l-2.767-3.188c-6.406 5.65-9.933 13.178-9.933 21.2 0 8.021 3.527 15.55 9.933 21.2l2.767-3.188c-5.48-4.833-8.498-11.23-8.498-18.013m51.314-21.2l-2.767 3.188c5.48 4.834 8.497 11.231 8.497 18.012 0 6.783-3.017 13.18-8.497 18.013l2.767 3.188c6.405-5.65 9.932-13.18 9.932-21.201 0-8.02-3.527-15.55-9.932-21.2m-22.791 45.516a2.995 2.995 0 0 0-2.986 3.007c0 1.663 1.336 3.01 2.986 3.01 1.648 0 2.984-1.347 2.984-3.01 0-1.662-1.336-3.008-2.984-3.008"/><path d="M466.153 148.702c-.171-2.603-.817-6.835-3.124-9.225-1.169-1.212-2.657-1.851-4.304-1.851-1.648 0-3.136.64-4.306 1.85-2.306 2.391-2.95 6.623-3.122 9.226h-4.288l10.832-37.972a8.717 8.717 0 0 0 1.767 0l10.832 37.972h-4.287zm-7.428-50.996c2.415 0 4.38 1.982 4.38 4.417 0 2.436-1.965 4.417-4.38 4.417-2.417 0-4.382-1.98-4.382-4.417 0-2.435 1.965-4.417 4.382-4.417zm4.838 11.559a8.67 8.67 0 0 0 3.745-7.142c0-4.77-3.85-8.653-8.583-8.653-4.734 0-8.585 3.883-8.585 8.653a8.667 8.667 0 0 0 3.746 7.142l-11.685 40.97a2.128 2.128 0 0 0 .34 1.859 2.093 2.093 0 0 0 1.678.844h9.124c.567 0 1.11-.23 1.506-.64.396-.41.61-.964.595-1.536-.043-1.582.229-6.51 1.986-8.331.38-.395.78-.569 1.295-.569.514 0 .912.174 1.291.567 1.562 1.613 2.05 5.97 1.991 8.333a2.123 2.123 0 0 0 .594 1.536c.395.41.939.64 1.506.64h9.123c.66 0 1.281-.312 1.678-.844.397-.53.524-1.22.34-1.86l-11.685-40.97z"/></g><path d="M831.92 141.61v-17.407c0-1.14-.917-2.063-2.047-2.063h-12.307a2.054 2.054 0 0 0-2.046 2.063v17.407h4.094v-15.345h8.21v15.345h4.097zm19.738 0v-25.604c0-1.14-.916-2.063-2.046-2.063h-12.307c-1.13 0-2.046.923-2.046 2.063v25.604h4.095v-23.54h8.21v23.541h4.094zm7.435-37.168h8.211v37.169h4.093v-39.232a2.054 2.054 0 0 0-2.047-2.063h-12.304c-1.13 0-2.049.924-2.049 2.063v39.232h4.096v-37.17zM808.41 148.53h70.095v-4.125h-70.094zm40.427-59.873l-4.02 12.245-4.359-5.472s0-.002-.002-.003l-.002-.002-4.359-5.473 12.742-1.295zm-38.685 33.414c.473 0 .949-.156 1.345-.477l26.949-21.765 5.491 6.895a2.146 2.146 0 0 0 2.06.777 2.155 2.155 0 0 0 1.661-1.452l6.308-19.203a2.184 2.184 0 0 0-.364-2.036 2.143 2.143 0 0 0-1.896-.8l-19.982 2.032a2.155 2.155 0 0 0-1.77 1.317 2.182 2.182 0 0 0 .307 2.194l5.492 6.894-26.948 21.766a2.178 2.178 0 0 0-.331 3.047 2.14 2.14 0 0 0 1.678.81zm-129.804 96.931l-8.923 9.56c-.4.428-.94.664-1.52.664a2.08 2.08 0 0 1-1.453-.593l-4.134-4.015-.36-.352-.008-.006-9.645-9.37c-.396-.385-.934-.58-1.597-.58-1.434 0-3.756.872-4.433 1.139l-1.977.78c-1.112.439-2.501-.144-2.969-1.211l-.073-.166c-.502-1.148.014-2.614 1.126-3.204l5.828-3.095c.573-.303 1.392-.477 2.247-.477 1.047 0 2.07.255 2.737.684l3.089 1.986c1.155.744 2.663 1.153 4.245 1.153 1.576 0 3.08-.407 4.233-1.146l4.573-2.93a2.53 2.53 0 0 1 1.373-.385c.83 0 1.608.348 2.084.934l5.683 6.992c.81.997.752 2.697-.126 3.638zm-10.594 18.315c-.745.713-2.09.606-2.94-.23l-6.875-6.838a1.736 1.736 0 0 0-.896-.475 1.755 1.755 0 0 0-1.56.469 1.702 1.702 0 0 0-.007 2.43l6.87 6.832a.358.358 0 0 0 .019.018l.32.318c.4.398.613.92.602 1.47-.012.55-.249 1.061-.717 1.488-.897.82-2.385.79-3.249-.067l-5.446-5.408-.768-.762a1.743 1.743 0 0 0-.272-.22 1.739 1.739 0 0 0-.843-.275c-.038-.002-.075-.01-.112-.01-.046 0-.092.008-.138.012-.065.005-.13.007-.194.02a1.714 1.714 0 0 0-.565.218c-.02.011-.04.018-.06.03-.015.01-.028.025-.042.036-.08.055-.16.113-.23.184a1.67 1.67 0 0 0-.265.345c-.254.425-.306.93-.159 1.391.081.254.216.493.418.695l5.267 5.231c.433.432.68 1.007.674 1.579-.006.487-.192.93-.525 1.246-.766.732-2.125.635-2.967-.208l-3.956-3.96a1.736 1.736 0 0 0-.206-.168c-.02-.016-.04-.036-.062-.051-.06-.04-.125-.069-.189-.1-.038-.02-.074-.044-.112-.06-.052-.021-.105-.033-.158-.047-.055-.018-.108-.039-.164-.05-.04-.008-.08-.007-.119-.014-.07-.008-.142-.02-.214-.02-.03 0-.06.006-.09.008-.08.003-.162.006-.242.02-.024.006-.048.016-.072.022-.085.019-.169.04-.25.071-.023.01-.045.024-.068.034-.08.037-.16.073-.235.122-.04.025-.076.06-.115.09-.052.04-.107.077-.156.124 0 0 0 .002-.002.003 0 0-.002 0-.003.002-.05.05-.09.106-.134.16-.028.035-.062.068-.087.105-.043.062-.074.13-.108.196-.016.034-.04.066-.054.102-.028.067-.044.136-.063.205-.011.038-.027.073-.035.112-.013.063-.015.128-.02.193-.005.045-.014.089-.015.135 0 .057.01.113.015.169.005.054.005.108.015.16.01.053.03.104.044.156.017.055.027.11.05.163.022.057.055.111.085.166.023.044.041.092.07.134.042.065.095.122.147.182.025.028.044.06.072.087l.002.003.002.002.042.044 2.026 2.042c.411.415.271 1.476-.53 2.274a1.854 1.854 0 0 1-1.318.523h-.002c-.59 0-1.175-.246-1.608-.675l-2.416-2.39a5.533 5.533 0 0 0 .808-2.883c0-1.5-.587-2.907-1.657-3.965l-.124-.122a5.646 5.646 0 0 0-3.915-1.633 5.548 5.548 0 0 0-1.65-3.875l-.13-.129a5.635 5.635 0 0 0-3.059-1.553 5.534 5.534 0 0 0-1.578-4.841l-.128-.128a5.658 5.658 0 0 0-4.005-1.637c-.032 0-.064.005-.096.005a5.55 5.55 0 0 0-1.64-3.666l-.13-.127a5.656 5.656 0 0 0-4.005-1.638 5.66 5.66 0 0 0-4.004 1.637l-.224.222-4.056-3.425c-.923-.778-1.06-2.228-.3-3.163l5.684-6.993c.848-1.044 2.66-1.446 3.878-.86l3.39 1.629c2.461 1.182 6.213 1.003 8.546-.41l1.193-.721c1.42-.858 4.048-1.158 5.626-.641l.16.051-.705.374c-2.684 1.425-3.883 4.834-2.673 7.597l.072.166c.915 2.09 3.009 3.44 5.334 3.44.729 0 1.438-.134 2.111-.399l1.977-.78c1.27-.5 2.247-.753 2.774-.849.622.606 1.729 1.68 2.859 2.778l6.793 6.6 7.572 7.387c.442.431.694 1.004.69 1.571-.001.329-.09.8-.495 1.188zm-33.792 10.913l-.127-.124a2.152 2.152 0 0 1 0-3.063l2.5-2.474c.41-.406.96-.63 1.548-.63.588 0 1.138.224 1.55.633l.126.124c.41.406.637.95.637 1.531 0 .582-.227 1.125-.637 1.533l-2.5 2.471c-.821.812-2.273.814-3.097 0zm-7.428-3.922l-.126-.123a2.15 2.15 0 0 1-.01-3.049l4.259-4.215a2.181 2.181 0 0 1 1.531-.617c.588 0 1.137.224 1.547.629l.13.128a2.152 2.152 0 0 1 0 3.063l-4.232 4.187c-.822.812-2.27.816-3.1-.003zm-6.404-4.896l-.127-.127a2.15 2.15 0 0 1-.001-3.062l1.464-1.45c.031-.029.065-.055.095-.085l4.125-4.08c.03-.03.054-.06.082-.091l.107-.107c.41-.405.96-.628 1.548-.628a2.18 2.18 0 0 1 1.546.628l.13.128c.41.406.637.95.637 1.532a2.14 2.14 0 0 1-.638 1.532l-.883.874c-.01.01-.022.017-.032.027l-4.23 4.188-.026.027-.7.693c-.822.814-2.278.814-3.097.001zm-4.25-7.281a2.154 2.154 0 0 1 0-3.063l4.125-4.082c.411-.406.96-.63 1.547-.63.589 0 1.137.224 1.548.63l.129.127a2.15 2.15 0 0 1 .04 3.015l-4.208 4.165c-.829.773-2.243.766-3.054-.037l-.127-.125zm65.3-18.921l-5.682-6.992c-1.129-1.389-2.92-2.218-4.79-2.218a6.033 6.033 0 0 0-3.264.937l-4.572 2.93c-1.18.757-3.518.755-4.697-.003l-3.086-1.986c-1.245-.8-2.89-1.24-4.632-1.24-1.452 0-2.796.306-3.89.886l-.903.48-3.288-1.077c-2.521-.823-6.267-.395-8.53.975l-1.193.722c-1.327.803-3.814.922-5.214.249l-3.39-1.63c-2.68-1.288-6.24-.498-8.105 1.798l-5.683 6.994c-1.941 2.385-1.604 5.944.753 7.932l3.847 3.248-1.437 1.422a5.568 5.568 0 0 0 .003 7.927l.125.124a5.62 5.62 0 0 0 2.577 1.452 5.566 5.566 0 0 0 1.416 5.576l.129.127a5.655 5.655 0 0 0 4.684 1.592 5.554 5.554 0 0 0 1.597 3.183l.125.123a5.652 5.652 0 0 0 4.005 1.637c.639 0 1.26-.11 1.845-.308a5.56 5.56 0 0 0 1.449 2.467l.127.126a5.655 5.655 0 0 0 4.004 1.636c1.516 0 2.939-.58 4.006-1.637l1.01-.999 2.294 2.268a5.83 5.83 0 0 0 4.065 1.681h.007c1.441-.002 2.783-.548 3.776-1.536a6.045 6.045 0 0 0 1.265-1.84c.881.489 1.858.74 2.826.74 1.355 0 2.691-.483 3.713-1.456a5.086 5.086 0 0 0 1.496-2.783 5.94 5.94 0 0 0 5.01-1.457 5.398 5.398 0 0 0 1.782-3.896c.002-.06-.005-.12-.006-.18 1.253-.059 2.47-.515 3.412-1.412a5.028 5.028 0 0 0 1.557-3.643c.01-1.443-.586-2.868-1.63-3.938a5.557 5.557 0 0 0 1.884-1.318l8.923-9.56c2.063-2.21 2.187-5.779.28-8.123z" fill="#676363"/><g fill="#676363"><path d="M103.422 131.573c-1.14-.863-3.805-2.884-3.972-4.74-.035-.382.008-.978.737-1.824 5.518-4.308 8.554-10.083 8.554-16.286C108.74 96.193 96.037 86 80.42 86c-8.324 0-15.82 2.895-21.007 7.496 1.978.26 3.894.67 5.734 1.215 4.143-2.643 9.468-4.24 15.272-4.24 13.16 0 23.867 8.189 23.867 18.252 0 4.84-2.477 9.409-6.975 12.864a2.249 2.249 0 0 0-.285.262c-1.88 2.048-2.132 4.06-2.013 5.385.176 1.963 1.217 3.644 2.423 4.993-3.613-.623-6.899-2.53-9.176-4.175-.719-.521-1.718-.854-2.94-1.027a23.902 23.902 0 0 1-1.98 4.33h.032c1.46 0 2.147.237 2.285.325 4.734 3.42 9.625 5.227 14.145 5.227 1.047 0 2.091-.096 3.07-.279 1.04-.18 1.861-.864 2.142-1.788.274-.91 0-1.873-.733-2.572a12.14 12.14 0 0 0-.86-.695"/><path d="M54.32 138.044c-.636 0-1.268-.023-1.893-.062-.058-.003-.12-.002-.177-.003-.2-.01-.509-.023-.885-.023-2.172 0-3.816.394-4.883 1.168-2.283 1.646-5.567 3.554-9.18 4.176 1.207-1.35 2.246-3.03 2.423-4.991.119-1.327-.132-3.338-2.01-5.387a2.385 2.385 0 0 0-.286-.26c-4.499-3.457-6.975-8.025-6.975-12.867 0-10.063 10.706-18.25 23.865-18.25 13.162 0 23.87 8.187 23.87 18.25 0 10.062-10.708 18.25-23.87 18.25m0-40.974C38.704 97.071 26 107.266 26 119.795c0 6.203 3.035 11.98 8.553 16.286.727.846.77 1.443.736 1.824-.166 1.858-2.834 3.879-3.973 4.742-.4.302-.7.542-.853.69-.738.702-1.012 1.666-.738 2.575.278.922 1.097 1.608 2.108 1.783a16.86 16.86 0 0 0 3.104.285c4.516 0 9.407-1.806 14.142-5.224.142-.091.828-.328 2.286-.328.429 0 .732.021.763.023.079.008.156.012.234.008a35.2 35.2 0 0 0 1.957.057c15.618 0 28.324-10.192 28.324-22.721 0-12.53-12.706-22.724-28.324-22.724"/><path d="M42.447 116.008a3.778 3.778 0 0 0-3.77 3.787 3.779 3.779 0 0 0 3.77 3.787 3.781 3.781 0 0 0 3.773-3.787 3.78 3.78 0 0 0-3.773-3.787m12.324 0a3.778 3.778 0 0 0-3.77 3.787 3.778 3.778 0 0 0 3.77 3.787c2.082 0 3.769-1.696 3.769-3.787s-1.687-3.787-3.769-3.787m12.325 0a3.777 3.777 0 0 0-3.77 3.787 3.778 3.778 0 0 0 3.77 3.787 3.78 3.78 0 0 0 3.77-3.787 3.78 3.78 0 0 0-3.77-3.787"/></g><rect fill="#72BFC5" y="229" width="136" height="40" rx="20"/><path d="M20.167 254.216a10.31 10.31 0 0 1-2.889-.405c-.93-.27-1.677-.621-2.241-1.053l.99-2.196c.54.396 1.182.714 1.926.954s1.488.36 2.232.36c.828 0 1.44-.123 1.836-.369.396-.246.594-.573.594-.981 0-.3-.117-.549-.351-.747a2.66 2.66 0 0 0-.9-.477c-.366-.12-.861-.252-1.485-.396-.96-.228-1.746-.456-2.358-.684a3.831 3.831 0 0 1-1.575-1.098c-.438-.504-.657-1.176-.657-2.016 0-.732.198-1.395.594-1.989.396-.594.993-1.065 1.791-1.413.798-.348 1.773-.522 2.925-.522.804 0 1.59.096 2.358.288.768.192 1.44.468 2.016.828l-.9 2.214c-1.164-.66-2.328-.99-3.492-.99-.816 0-1.419.132-1.809.396-.39.264-.585.612-.585 1.044 0 .432.225.753.675.963.45.21 1.137.417 2.061.621.96.228 1.746.456 2.358.684a3.905 3.905 0 0 1 1.575 1.08c.438.492.657 1.158.657 1.998a3.44 3.44 0 0 1-.603 1.971c-.402.594-1.005 1.065-1.809 1.413-.804.348-1.782.522-2.934.522zm13.374 0c-1.284 0-2.445-.279-3.483-.837a6.247 6.247 0 0 1-2.448-2.322c-.594-.99-.891-2.109-.891-3.357 0-1.248.297-2.367.891-3.357a6.247 6.247 0 0 1 2.448-2.322c1.038-.558 2.205-.837 3.501-.837 1.092 0 2.079.192 2.961.576a5.93 5.93 0 0 1 2.223 1.656l-1.872 1.728c-.852-.984-1.908-1.476-3.168-1.476-.78 0-1.476.171-2.088.513a3.647 3.647 0 0 0-1.431 1.431c-.342.612-.513 1.308-.513 2.088s.171 1.476.513 2.088a3.647 3.647 0 0 0 1.431 1.431c.612.342 1.308.513 2.088.513 1.26 0 2.316-.498 3.168-1.494l1.872 1.728a5.835 5.835 0 0 1-2.232 1.674c-.888.384-1.878.576-2.97.576zM48.733 254l-2.43-3.51h-2.682V254h-2.916v-12.6h5.454c1.116 0 2.085.186 2.907.558.822.372 1.455.9 1.899 1.584.444.684.666 1.494.666 2.43 0 .936-.225 1.743-.675 2.421-.45.678-1.089 1.197-1.917 1.557l2.826 4.05h-3.132zm-.054-8.028c0-.708-.228-1.251-.684-1.629-.456-.378-1.122-.567-1.998-.567h-2.376v4.392h2.376c.876 0 1.542-.192 1.998-.576.456-.384.684-.924.684-1.62zm15.012 5.688V254h-9.756v-12.6h9.522v2.34h-6.624v2.736h5.85v2.268h-5.85v2.916h6.858zm12.078 0V254h-9.756v-12.6h9.522v2.34h-6.624v2.736h5.85v2.268h-5.85v2.916h6.858zm13.878-10.26V254h-2.394l-6.282-7.65V254h-2.88v-12.6h2.412l6.264 7.65v-7.65h2.88zm2.988 0h2.916V254h-2.916v-12.6zm17.46 0V254h-2.394l-6.282-7.65V254h-2.88v-12.6h2.412l6.264 7.65v-7.65h2.88zm11.502 6.102h2.664v5.112a7.611 7.611 0 0 1-2.376 1.188c-.9.276-1.806.414-2.718.414-1.308 0-2.484-.279-3.528-.837a6.23 6.23 0 0 1-2.457-2.322c-.594-.99-.891-2.109-.891-3.357 0-1.248.297-2.367.891-3.357a6.2 6.2 0 0 1 2.475-2.322c1.056-.558 2.244-.837 3.564-.837 1.104 0 2.106.186 3.006.558.9.372 1.656.912 2.268 1.62l-1.872 1.728c-.9-.948-1.986-1.422-3.258-1.422-.804 0-1.518.168-2.142.504-.624.336-1.11.81-1.458 1.422-.348.612-.522 1.314-.522 2.106 0 .78.174 1.476.522 2.088a3.692 3.692 0 0 0 1.449 1.431c.618.342 1.323.513 2.115.513.84 0 1.596-.18 2.268-.54v-3.69z" fill="#FFF" fill-rule="nonzero"/><rect fill="#C09" x="199" y="334" width="124" height="40" rx="20"/><path d="M220.771 359.216a10.31 10.31 0 0 1-2.889-.405c-.93-.27-1.677-.621-2.241-1.053l.99-2.196c.54.396 1.182.714 1.926.954s1.488.36 2.232.36c.828 0 1.44-.123 1.836-.369.396-.246.594-.573.594-.981 0-.3-.117-.549-.351-.747a2.66 2.66 0 0 0-.9-.477c-.366-.12-.861-.252-1.485-.396-.96-.228-1.746-.456-2.358-.684a3.831 3.831 0 0 1-1.575-1.098c-.438-.504-.657-1.176-.657-2.016 0-.732.198-1.395.594-1.989.396-.594.993-1.065 1.791-1.413.798-.348 1.773-.522 2.925-.522.804 0 1.59.096 2.358.288.768.192 1.44.468 2.016.828l-.9 2.214c-1.164-.66-2.328-.99-3.492-.99-.816 0-1.419.132-1.809.396-.39.264-.585.612-.585 1.044 0 .432.225.753.675.963.45.21 1.137.417 2.061.621.96.228 1.746.456 2.358.684a3.905 3.905 0 0 1 1.575 1.08c.438.492.657 1.158.657 1.998a3.44 3.44 0 0 1-.603 1.971c-.402.594-1.005 1.065-1.809 1.413-.804.348-1.782.522-2.934.522zm9.954-10.44h-4.032V346.4h10.98v2.376h-4.032V359h-2.916v-10.224zm16.812 7.524h-5.85l-1.116 2.7h-2.988l5.616-12.6h2.88l5.634 12.6h-3.06l-1.116-2.7zm-.918-2.214l-1.998-4.824-1.998 4.824h3.996zm9.324-5.346v3.33h5.832v2.34h-5.832V359h-2.916v-12.6h9.522v2.34h-6.606zm11.502 0v3.33h5.832v2.34h-5.832V359h-2.916v-12.6h9.522v2.34h-6.606zm8.586-2.34h2.916V359h-2.916v-12.6zm17.46 0V359h-2.394l-6.282-7.65V359h-2.88v-12.6h2.412l6.264 7.65v-7.65h2.88zm11.502 6.102h2.664v5.112a7.611 7.611 0 0 1-2.376 1.188c-.9.276-1.806.414-2.718.414-1.308 0-2.484-.279-3.528-.837a6.23 6.23 0 0 1-2.457-2.322c-.594-.99-.891-2.109-.891-3.357 0-1.248.297-2.367.891-3.357a6.2 6.2 0 0 1 2.475-2.322c1.056-.558 2.244-.837 3.564-.837 1.104 0 2.106.186 3.006.558.9.372 1.656.912 2.268 1.62l-1.872 1.728c-.9-.948-1.986-1.422-3.258-1.422-.804 0-1.518.168-2.142.504-.624.336-1.11.81-1.458 1.422-.348.612-.522 1.314-.522 2.106 0 .78.174 1.476.522 2.088a3.692 3.692 0 0 0 1.449 1.431c.618.342 1.323.513 2.115.513.84 0 1.596-.18 2.268-.54v-3.69z" fill="#FFF" fill-rule="nonzero"/><rect fill="#F9CE3D" x="579" y="334" width="146" height="40" rx="20"/><path d="M595.102 346.4h5.724c1.368 0 2.577.261 3.627.783 1.05.522 1.866 1.257 2.448 2.205.582.948.873 2.052.873 3.312 0 1.26-.291 2.364-.873 3.312-.582.948-1.398 1.683-2.448 2.205s-2.259.783-3.627.783h-5.724v-12.6zm5.58 10.206c1.26 0 2.265-.351 3.015-1.053s1.125-1.653 1.125-2.853c0-1.2-.375-2.151-1.125-2.853-.75-.702-1.755-1.053-3.015-1.053h-2.664v7.812h2.664zm19.044.054V359h-9.756v-12.6h9.522v2.34h-6.624v2.736h5.85v2.268h-5.85v2.916h6.858zm2.322-10.26h2.916v10.224h6.318V359h-9.234v-12.6zm10.872 0h2.916V359h-2.916v-12.6zm18.018 0l-5.454 12.6h-2.88l-5.436-12.6h3.15l3.834 9 3.888-9h2.898zm11.07 10.26V359h-9.756v-12.6h9.522v2.34h-6.624v2.736H661v2.268h-5.85v2.916h6.858zm10.35 2.34l-2.43-3.51h-2.682V359h-2.916v-12.6h5.454c1.116 0 2.085.186 2.907.558.822.372 1.455.9 1.899 1.584.444.684.666 1.494.666 2.43 0 .936-.225 1.743-.675 2.421-.45.678-1.089 1.197-1.917 1.557l2.826 4.05h-3.132zm-.054-8.028c0-.708-.228-1.251-.684-1.629-.456-.378-1.122-.567-1.998-.567h-2.376v4.392h2.376c.876 0 1.542-.192 1.998-.576.456-.384.684-.924.684-1.62zm5.256-4.572h2.916V359h-2.916v-12.6zm17.46 0V359h-2.394l-6.282-7.65V359h-2.88v-12.6h2.412l6.264 7.65v-7.65h2.88zm11.502 6.102h2.664v5.112a7.611 7.611 0 0 1-2.376 1.188c-.9.276-1.806.414-2.718.414-1.308 0-2.484-.279-3.528-.837a6.23 6.23 0 0 1-2.457-2.322c-.594-.99-.891-2.109-.891-3.357 0-1.248.297-2.367.891-3.357a6.2 6.2 0 0 1 2.475-2.322c1.056-.558 2.244-.837 3.564-.837 1.104 0 2.106.186 3.006.558.9.372 1.656.912 2.268 1.62l-1.872 1.728c-.9-.948-1.986-1.422-3.258-1.422-.804 0-1.518.168-2.142.504-.624.336-1.11.81-1.458 1.422-.348.612-.522 1.314-.522 2.106 0 .78.174 1.476.522 2.088a3.692 3.692 0 0 0 1.449 1.431c.618.342 1.323.513 2.115.513.84 0 1.596-.18 2.268-.54v-3.69z" fill="#FFF" fill-rule="nonzero"/><rect fill="#090" x="393" y="229" width="144" height="40" rx="20"/><path d="M418.344 254l-2.43-3.51h-2.682V254h-2.916v-12.6h5.454c1.116 0 2.085.186 2.907.558.822.372 1.455.9 1.899 1.584.444.684.666 1.494.666 2.43 0 .936-.225 1.743-.675 2.421-.45.678-1.089 1.197-1.917 1.557l2.826 4.05h-3.132zm-.054-8.028c0-.708-.228-1.251-.684-1.629-.456-.378-1.122-.567-1.998-.567h-2.376v4.392h2.376c.876 0 1.542-.192 1.998-.576.456-.384.684-.924.684-1.62zm15.012 5.688V254h-9.756v-12.6h9.522v2.34h-6.624v2.736h5.85v2.268h-5.85v2.916h6.858zm7.776-10.26c1.116 0 2.085.186 2.907.558.822.372 1.455.9 1.899 1.584.444.684.666 1.494.666 2.43 0 .924-.222 1.731-.666 2.421-.444.69-1.077 1.218-1.899 1.584-.822.366-1.791.549-2.907.549h-2.538V254h-2.916v-12.6h5.454zm-.162 6.75c.876 0 1.542-.189 1.998-.567.456-.378.684-.915.684-1.611 0-.708-.228-1.251-.684-1.629-.456-.378-1.122-.567-1.998-.567h-2.376v4.374h2.376zm13.986 6.066c-1.308 0-2.487-.282-3.537-.846a6.279 6.279 0 0 1-2.466-2.331c-.594-.99-.891-2.103-.891-3.339 0-1.236.297-2.349.891-3.339a6.279 6.279 0 0 1 2.466-2.331c1.05-.564 2.229-.846 3.537-.846 1.308 0 2.484.282 3.528.846a6.36 6.36 0 0 1 2.466 2.331c.6.99.9 2.103.9 3.339 0 1.236-.3 2.349-.9 3.339a6.36 6.36 0 0 1-2.466 2.331c-1.044.564-2.22.846-3.528.846zm0-2.484c.744 0 1.416-.171 2.016-.513a3.681 3.681 0 0 0 1.413-1.431c.342-.612.513-1.308.513-2.088s-.171-1.476-.513-2.088a3.681 3.681 0 0 0-1.413-1.431 3.998 3.998 0 0 0-2.016-.513c-.744 0-1.416.171-2.016.513-.6.342-1.071.819-1.413 1.431-.342.612-.513 1.308-.513 2.088s.171 1.476.513 2.088a3.681 3.681 0 0 0 1.413 1.431c.6.342 1.272.513 2.016.513zM472.02 254l-2.43-3.51h-2.682V254h-2.916v-12.6h5.454c1.116 0 2.085.186 2.907.558.822.372 1.455.9 1.899 1.584.444.684.666 1.494.666 2.43 0 .936-.225 1.743-.675 2.421-.45.678-1.089 1.197-1.917 1.557l2.826 4.05h-3.132zm-.054-8.028c0-.708-.228-1.251-.684-1.629-.456-.378-1.122-.567-1.998-.567h-2.376v4.392h2.376c.876 0 1.542-.192 1.998-.576.456-.384.684-.924.684-1.62zm7.866-2.196H475.8V241.4h10.98v2.376h-4.032V254h-2.916v-10.224zm8.514-2.376h2.916V254h-2.916v-12.6zm17.46 0V254h-2.394l-6.282-7.65V254h-2.88v-12.6h2.412l6.264 7.65v-7.65h2.88zm11.502 6.102h2.664v5.112a7.611 7.611 0 0 1-2.376 1.188c-.9.276-1.806.414-2.718.414-1.308 0-2.484-.279-3.528-.837a6.23 6.23 0 0 1-2.457-2.322c-.594-.99-.891-2.109-.891-3.357 0-1.248.297-2.367.891-3.357a6.2 6.2 0 0 1 2.475-2.322c1.056-.558 2.244-.837 3.564-.837 1.104 0 2.106.186 3.006.558.9.372 1.656.912 2.268 1.62l-1.872 1.728c-.9-.948-1.986-1.422-3.258-1.422-.804 0-1.518.168-2.142.504-.624.336-1.11.81-1.458 1.422-.348.612-.522 1.314-.522 2.106 0 .78.174 1.476.522 2.088a3.692 3.692 0 0 0 1.449 1.431c.618.342 1.323.513 2.115.513.84 0 1.596-.18 2.268-.54v-3.69z" fill="#FFF" fill-rule="nonzero"/><rect fill="#A5CD38" x="746" y="228" width="196" height="63" rx="24.5"/><mask id="f" fill="#fff"><use xlink:href="#e"/></mask><path d="M457.033 196.706c41.717 0 75.535-33.733 75.535-75.344s-33.818-75.343-75.535-75.343a75.79 75.79 0 0 0-20.169 2.715c-31.925 8.801-55.367 37.984-55.367 72.628 0 41.611 33.818 75.344 75.536 75.344z" stroke="#676363" stroke-width="5" mask="url(#f)" transform="scale(1 -1) rotate(-30 4.103 0)"/><path d="M772.577 254l-2.43-3.51h-2.682V254h-2.916v-12.6h5.454c1.116 0 2.085.186 2.907.558.822.372 1.455.9 1.899 1.584.444.684.666 1.494.666 2.43 0 .936-.225 1.743-.675 2.421-.45.678-1.089 1.197-1.917 1.557l2.826 4.05h-3.132zm-.054-8.028c0-.708-.228-1.251-.684-1.629-.456-.378-1.122-.567-1.998-.567h-2.376v4.392h2.376c.876 0 1.542-.192 1.998-.576.456-.384.684-.924.684-1.62zm15.012 5.688V254h-9.756v-12.6h9.522v2.34h-6.624v2.736h5.85v2.268h-5.85v2.916h6.858zm8.352 2.556c-1.284 0-2.445-.279-3.483-.837a6.247 6.247 0 0 1-2.448-2.322c-.594-.99-.891-2.109-.891-3.357 0-1.248.297-2.367.891-3.357a6.247 6.247 0 0 1 2.448-2.322c1.038-.558 2.205-.837 3.501-.837 1.092 0 2.079.192 2.961.576a5.93 5.93 0 0 1 2.223 1.656l-1.872 1.728c-.852-.984-1.908-1.476-3.168-1.476-.78 0-1.476.171-2.088.513a3.647 3.647 0 0 0-1.431 1.431c-.342.612-.513 1.308-.513 2.088s.171 1.476.513 2.088a3.647 3.647 0 0 0 1.431 1.431c.612.342 1.308.513 2.088.513 1.26 0 2.316-.498 3.168-1.494l1.872 1.728a5.835 5.835 0 0 1-2.232 1.674c-.888.384-1.878.576-2.97.576zm13.266 0c-1.308 0-2.487-.282-3.537-.846a6.279 6.279 0 0 1-2.466-2.331c-.594-.99-.891-2.103-.891-3.339 0-1.236.297-2.349.891-3.339a6.279 6.279 0 0 1 2.466-2.331c1.05-.564 2.229-.846 3.537-.846 1.308 0 2.484.282 3.528.846a6.36 6.36 0 0 1 2.466 2.331c.6.99.9 2.103.9 3.339 0 1.236-.3 2.349-.9 3.339a6.36 6.36 0 0 1-2.466 2.331c-1.044.564-2.22.846-3.528.846zm0-2.484c.744 0 1.416-.171 2.016-.513a3.681 3.681 0 0 0 1.413-1.431c.342-.612.513-1.308.513-2.088s-.171-1.476-.513-2.088a3.681 3.681 0 0 0-1.413-1.431 3.998 3.998 0 0 0-2.016-.513c-.744 0-1.416.171-2.016.513-.6.342-1.071.819-1.413 1.431-.342.612-.513 1.308-.513 2.088s.171 1.476.513 2.088a3.681 3.681 0 0 0 1.413 1.431c.6.342 1.272.513 2.016.513zM829.709 254l-.018-7.56-3.708 6.228h-1.314l-3.69-6.066V254h-2.736v-12.6h2.412l4.716 7.83 4.644-7.83h2.394l.036 12.6h-2.736zm17.19 0l-.018-7.56-3.708 6.228h-1.314l-3.69-6.066V254h-2.736v-12.6h2.412l4.716 7.83 4.644-7.83h2.394l.036 12.6h-2.736zm15.48-2.34V254h-9.756v-12.6h9.522v2.34h-6.624v2.736h5.85v2.268h-5.85v2.916h6.858zm13.878-10.26V254h-2.394l-6.282-7.65V254h-2.88v-12.6h2.412l6.264 7.65v-7.65h2.88zm2.988 0h5.724c1.368 0 2.577.261 3.627.783 1.05.522 1.866 1.257 2.448 2.205.582.948.873 2.052.873 3.312 0 1.26-.291 2.364-.873 3.312-.582.948-1.398 1.683-2.448 2.205s-2.259.783-3.627.783h-5.724v-12.6zm5.58 10.206c1.26 0 2.265-.351 3.015-1.053s1.125-1.653 1.125-2.853c0-1.2-.375-2.151-1.125-2.853-.75-.702-1.755-1.053-3.015-1.053h-2.664v7.812h2.664zm9.288-10.206h2.916V254h-2.916v-12.6zm17.46 0V254h-2.394l-6.282-7.65V254h-2.88v-12.6h2.412l6.264 7.65v-7.65h2.88zm11.502 6.102h2.664v5.112a7.611 7.611 0 0 1-2.376 1.188c-.9.276-1.806.414-2.718.414-1.308 0-2.484-.279-3.528-.837a6.23 6.23 0 0 1-2.457-2.322c-.594-.99-.891-2.109-.891-3.357 0-1.248.297-2.367.891-3.357a6.2 6.2 0 0 1 2.475-2.322c1.056-.558 2.244-.837 3.564-.837 1.104 0 2.106.186 3.006.558.9.372 1.656.912 2.268 1.62l-1.872 1.728c-.9-.948-1.986-1.422-3.258-1.422-.804 0-1.518.168-2.142.504-.624.336-1.11.81-1.458 1.422-.348.612-.522 1.314-.522 2.106 0 .78.174 1.476.522 2.088a3.692 3.692 0 0 0 1.449 1.431c.618.342 1.323.513 2.115.513.84 0 1.596-.18 2.268-.54v-3.69zM768.185 263.4h2.916V276h-2.916v-12.6zm17.37 12.6l-.018-7.56-3.708 6.228h-1.314l-3.69-6.066V276h-2.736v-12.6h2.412l4.716 7.83 4.644-7.83h2.394l.036 12.6h-2.736zm11.178-12.6c1.116 0 2.085.186 2.907.558.822.372 1.455.9 1.899 1.584.444.684.666 1.494.666 2.43 0 .924-.222 1.731-.666 2.421-.444.69-1.077 1.218-1.899 1.584-.822.366-1.791.549-2.907.549h-2.538V276h-2.916v-12.6h5.454zm-.162 6.75c.876 0 1.542-.189 1.998-.567.456-.378.684-.915.684-1.611 0-.708-.228-1.251-.684-1.629-.456-.378-1.122-.567-1.998-.567h-2.376v4.374h2.376zm15.912 5.85l-2.43-3.51h-2.682V276h-2.916v-12.6h5.454c1.116 0 2.085.186 2.907.558.822.372 1.455.9 1.899 1.584.444.684.666 1.494.666 2.43 0 .936-.225 1.743-.675 2.421-.45.678-1.089 1.197-1.917 1.557l2.826 4.05h-3.132zm-.054-8.028c0-.708-.228-1.251-.684-1.629-.456-.378-1.122-.567-1.998-.567h-2.376v4.392h2.376c.876 0 1.542-.192 1.998-.576.456-.384.684-.924.684-1.62zm11.358 8.244c-1.308 0-2.487-.282-3.537-.846a6.279 6.279 0 0 1-2.466-2.331c-.594-.99-.891-2.103-.891-3.339 0-1.236.297-2.349.891-3.339a6.279 6.279 0 0 1 2.466-2.331c1.05-.564 2.229-.846 3.537-.846 1.308 0 2.484.282 3.528.846a6.36 6.36 0 0 1 2.466 2.331c.6.99.9 2.103.9 3.339 0 1.236-.3 2.349-.9 3.339a6.36 6.36 0 0 1-2.466 2.331c-1.044.564-2.22.846-3.528.846zm0-2.484c.744 0 1.416-.171 2.016-.513a3.681 3.681 0 0 0 1.413-1.431c.342-.612.513-1.308.513-2.088s-.171-1.476-.513-2.088a3.681 3.681 0 0 0-1.413-1.431 3.998 3.998 0 0 0-2.016-.513c-.744 0-1.416.171-2.016.513-.6.342-1.071.819-1.413 1.431-.342.612-.513 1.308-.513 2.088s.171 1.476.513 2.088a3.681 3.681 0 0 0 1.413 1.431c.6.342 1.272.513 2.016.513zm21.204-10.332l-5.454 12.6h-2.88l-5.436-12.6h3.15l3.834 9 3.888-9h2.898zm11.07 10.26V276h-9.756v-12.6h9.522v2.34h-6.624v2.736h5.85v2.268h-5.85v2.916h6.858zm13.788 2.34l-.018-7.56-3.708 6.228h-1.314l-3.69-6.066V276h-2.736v-12.6h2.412l4.716 7.83 4.644-7.83h2.394l.036 12.6h-2.736zm15.48-2.34V276h-9.756v-12.6h9.522v2.34h-6.624v2.736h5.85v2.268h-5.85v2.916h6.858zm13.878-10.26V276h-2.394l-6.282-7.65V276h-2.88v-12.6h2.412l6.264 7.65v-7.65h2.88zm5.598 2.376h-4.032V263.4h10.98v2.376h-4.032V276h-2.916v-10.224zm12.654 10.44a10.31 10.31 0 0 1-2.889-.405c-.93-.27-1.677-.621-2.241-1.053l.99-2.196c.54.396 1.182.714 1.926.954s1.488.36 2.232.36c.828 0 1.44-.123 1.836-.369.396-.246.594-.573.594-.981 0-.3-.117-.549-.351-.747a2.66 2.66 0 0 0-.9-.477c-.366-.12-.861-.252-1.485-.396-.96-.228-1.746-.456-2.358-.684a3.831 3.831 0 0 1-1.575-1.098c-.438-.504-.657-1.176-.657-2.016 0-.732.198-1.395.594-1.989.396-.594.993-1.065 1.791-1.413.798-.348 1.773-.522 2.925-.522.804 0 1.59.096 2.358.288.768.192 1.44.468 2.016.828l-.9 2.214c-1.164-.66-2.328-.99-3.492-.99-.816 0-1.419.132-1.809.396-.39.264-.585.612-.585 1.044 0 .432.225.753.675.963.45.21 1.137.417 2.061.621.96.228 1.746.456 2.358.684a3.905 3.905 0 0 1 1.575 1.08c.438.492.657 1.158.657 1.998a3.44 3.44 0 0 1-.603 1.971c-.402.594-1.005 1.065-1.809 1.413-.804.348-1.782.522-2.934.522z" fill="#FFF" fill-rule="nonzero"/><mask id="h" fill="#fff"><use xlink:href="#g"/></mask><ellipse stroke="#676363" stroke-width="5" mask="url(#h)" transform="rotate(-30 262.928 225.863)" cx="262.928" cy="225.863" rx="75.536" ry="75.344"/><mask id="j" fill="#fff"><use xlink:href="#i"/></mask><ellipse stroke="#676363" stroke-width="5" mask="url(#j)" cx="367.793" cy="201.71" rx="32.203" ry="32.857"/><mask id="l" fill="#fff"><use xlink:href="#k"/></mask><ellipse stroke="#676363" stroke-width="5" mask="url(#l)" transform="matrix(1 0 0 -1 0 291.03)" cx="561.897" cy="145.515" rx="32.203" ry="32.857"/><mask id="n" fill="#fff"><use xlink:href="#m"/></mask><ellipse stroke="#676363" stroke-width="5" mask="url(#n)" transform="rotate(-30 644.033 225.863)" cx="644.033" cy="225.863" rx="75.536" ry="75.344"/><mask id="p" fill="#fff"><use xlink:href="#o"/></mask><ellipse stroke="#676363" stroke-width="5" mask="url(#p)" cx="748.897" cy="201.71" rx="32.203" ry="32.857"/><mask id="r" fill="#fff"><use xlink:href="#q"/></mask><path d="M838.137 196.706c41.717 0 75.535-33.733 75.535-75.344s-33.818-75.343-75.535-75.343a75.79 75.79 0 0 0-20.169 2.715c-31.925 8.801-55.367 37.984-55.367 72.628 0 41.611 33.818 75.344 75.536 75.344z" stroke="#676363" stroke-width="5" mask="url(#r)" transform="scale(1 -1) rotate(-31 400.52 0)"/><mask id="t" fill="#fff"><use xlink:href="#s"/></mask><ellipse stroke="#676363" stroke-width="5" mask="url(#t)" transform="scale(1 -1) rotate(-30 -381.665 0)" cx="67.533" cy="120.362" rx="75.536" ry="75.344"/><mask id="v" fill="#fff"><use xlink:href="#u"/></mask><ellipse stroke="#676363" stroke-width="5" mask="url(#v)" transform="matrix(1 0 0 -1 0 289.03)" cx="172.397" cy="144.515" rx="32.203" ry="32.857"/><path fill="#676363" d="M414.04 133.234l-14.785 22.392-12-20.784z"/><path fill="#676363" d="M349.632 171.212l49.742-33.552 2.852 4.228-49.742 33.552zm258.512 42.779L593.359 191.6l-12 20.785z"/><path fill="#676363" d="M543.736 176.014l49.742 33.551 2.852-4.228-49.742-33.552zm251.408-42.78l-14.785 22.392-12-20.784z"/><path fill="#676363" d="M730.736 171.212l49.742-33.552 2.852 4.228-49.742 33.552zm-512.092 41.779L203.859 190.6l-12 20.785z"/><path fill="#676363" d="M154.236 175.014l49.742 33.551 2.852-4.228-49.742-33.552z"/></g></svg>