<svg width="40" height="40" xmlns="http://www.w3.org/2000/svg"><defs><linearGradient x1="78.119%" y1="178.125%" x2="33.129%" y2=".002%" id="a"><stop stop-color="#DCFE81" offset="0%"/><stop stop-color="#A5CD38" offset="100%"/></linearGradient><linearGradient x1="78.119%" y1="178.121%" x2="33.129%" y2=".003%" id="b"><stop stop-color="#DCFE81" offset="0%"/><stop stop-color="#A5CD38" offset="100%"/></linearGradient><linearGradient x1="78.119%" y1="178.107%" x2="33.129%" y2=".009%" id="c"><stop stop-color="#DCFE81" offset="0%"/><stop stop-color="#A5CD38" offset="100%"/></linearGradient></defs><g fill="none" fill-rule="evenodd"><path d="M33.712 12.716a16.11 16.11 0 0 1 1.19 6.083c0 8.933-7.268 16.201-16.2 16.201C9.767 35 2.5 27.732 2.5 18.8c0-8.934 7.268-16.2 16.201-16.2 2.15 0 4.203.424 6.082 1.188l1.898-1.896A18.576 18.576 0 0 0 18.7.099C8.39.099 0 8.487 0 18.799 0 29.11 8.39 37.5 18.7 37.5s18.7-8.39 18.7-18.701c0-2.853-.644-5.557-1.791-7.979l-1.898 1.896z" transform="translate(0 2.5)" fill="url(#a)"/><path d="M18.701 13.918a7.38 7.38 0 0 1 1.77.223l1.98-1.98a9.832 9.832 0 0 0-3.75-.743c-5.449 0-9.882 4.433-9.882 9.881s4.433 9.881 9.882 9.881 9.881-4.433 9.881-9.88a9.842 9.842 0 0 0-.743-3.75l-1.98 1.98c.14.569.223 1.159.223 1.77 0 4.069-3.31 7.38-7.38 7.38-4.072 0-7.383-3.311-7.383-7.38 0-4.07 3.311-7.383 7.382-7.383" fill="url(#b)"/><path d="M14.473 11.743c-.439.155-1.768.365-2.938.464.028-1.224.188-2.493.393-2.849l5.743-5.743c.17.53.437 1.093.903 1.56.467.467 1.032.734 1.562.904l-5.663 5.664zm9.002-6.64c-.273-.908-1.174-1.09-1.83-1.225-.465-.093-1.044-.211-1.302-.47-.259-.259-.377-.837-.47-1.302-.126-.614-.385-1.892-1.643-1.892-.622 0-1.076.382-1.362.668l-6.742 6.741C9.071 8.68 9.01 11.624 9.04 12.943l-6.402 6.402c-.063-.007-.123-.02-.187-.02A1.973 1.973 0 1 0 4.424 21.3c0-.064-.013-.124-.019-.187l6.363-6.362c1.127-.052 4.507-.276 5.359-1.125l6.742-6.742c.582-.583.786-1.181.606-1.78z" transform="translate(16.25)" fill="url(#c)"/></g></svg>