<svg width="50" height="33" xmlns="http://www.w3.org/2000/svg"><defs><linearGradient x1="62.347%" y1="178.129%" x2="42.592%" y2="0%" id="a"><stop stop-color="#DCFE81" offset="0%"/><stop stop-color="#A5CD38" offset="100%"/></linearGradient><linearGradient x1="62.349%" y1="178.129%" x2="42.591%" y2="0%" id="b"><stop stop-color="#DCFE81" offset="0%"/><stop stop-color="#A5CD38" offset="100%"/></linearGradient><linearGradient x1="74.048%" y1="178.129%" x2="35.572%" y2="0%" id="c"><stop stop-color="#DCFE81" offset="0%"/><stop stop-color="#A5CD38" offset="100%"/></linearGradient></defs><g fill="none" fill-rule="evenodd"><path d="M9 26.445c-3.7-.218-6.367-.883-6.654-1.464 0-4.45 2.055-7.013 6.285-7.837.09-.018.176-.045.256-.081 1.033-.385 1.693-.975 1.961-1.76.178-.519.253-1.353-.402-2.38a1.194 1.194 0 0 0-.196-.233l-.118-.108c-.73-.753-1.622-3.426-.923-5.1.232-.557.732-1.297 2.384-1.297 1.653 0 2.153.74 2.385 1.296.7 1.676-.192 4.348-.899 5.077-.035.035-.072.068-.13.12a1.194 1.194 0 0 0-.212.249c-.65 1.027-.575 1.86-.397 2.378.193.567.596 1.03 1.192 1.389.753-.628 1.6-1.17 2.53-1.633a13.943 13.943 0 0 0-.974-.227c-.4-.152-.516-.284-.527-.284a.616.616 0 0 1 .082-.227l.09-.087c1.314-1.355 2.515-5.018 1.407-7.672-.739-1.77-2.354-2.745-4.547-2.745-2.193 0-3.808.975-4.546 2.745-1.107 2.654.094 6.317 1.417 7.682l.079.076c.07.13.082.198.09.203-.023.029-.147.166-.559.318C2.791 15.913 0 19.416 0 24.98c0 2.747 4.54 3.646 9.133 3.852a3.668 3.668 0 0 1-.176-1.093c0-.442.017-.872.042-1.295" fill="url(#a)"/><path d="M41.866 14.843c-.432-.16-.555-.296-.553-.294 0-.017.01-.09.084-.227l.088-.086c1.313-1.355 2.515-5.018 1.408-7.672-.74-1.77-2.353-2.745-4.547-2.745-2.193 0-3.808.975-4.546 2.745-1.108 2.654.092 6.316 1.43 7.696l.066.063c.069.13.082.197.088.202-.021.028-.14.16-.532.309-.325.064-.64.138-.947.22.928.46 1.775 1 2.528 1.625.582-.358.976-.816 1.167-1.375.178-.518.253-1.35-.4-2.377a1.593 1.593 0 0 0-.248-.284l-.068-.06c-.73-.754-1.622-3.426-.923-5.101.233-.557.732-1.297 2.385-1.297 1.652 0 2.152.74 2.384 1.297.7 1.675-.192 4.347-.913 5.09l-.08.074-.045.042c-.076.07-.142.148-.197.235-.657 1.025-.582 1.86-.405 2.38.268.783.927 1.374 1.959 1.758.081.037.168.065.26.083 4.229.824 6.285 3.387 6.292 7.798-.292.611-2.94 1.28-6.62 1.5.027.424.043.855.043 1.298 0 .396-.07.753-.171 1.091 4.576-.21 9.087-1.112 9.087-3.85 0-5.564-2.792-9.068-8.074-10.138" fill="url(#b)"/><path d="M32.341 29.697c-3.194.455-6.58.478-7.227.478h-.248c-7.792 0-12.576-1.419-12.576-2.436 0-6.045 2.917-9.678 8.669-10.797.1-.02.194-.05.281-.094 1.259-.467 2.057-1.172 2.374-2.096.209-.609.292-1.594-.494-2.828a1.185 1.185 0 0 0-.194-.232l-.076-.068c-.03-.028-.06-.054-.1-.094-1.19-1.227-2.248-4.942-1.306-7.202.55-1.32 1.704-1.962 3.526-1.962 1.822 0 2.975.642 3.526 1.963.943 2.26-.116 5.974-1.31 7.204-.03.032-.063.059-.094.088l-.076.067c-.076.07-.143.15-.199.239-.783 1.235-.7 2.217-.491 2.824.326.952 1.163 1.672 2.487 2.139.055.019.11.034.168.045 5.78 1.107 8.71 4.743 8.71 10.804 0 .334-.961 1.334-5.35 1.958m-2.83-15.068c-.628-.233-.912-.487-.968-.651-.019-.053-.054-.246.174-.65.051-.046.101-.094.15-.144 1.672-1.724 3.203-6.388 1.791-9.772C29.741 1.212 27.721 0 24.97 0s-4.77 1.211-5.689 3.411c-1.41 3.384.12 8.048 1.783 9.763.051.054.104.105.157.154.23.403.194.597.176.65-.058.168-.353.43-1.01.666C13.554 16.02 9.943 20.546 9.943 27.74c0 4.178 9.349 4.802 14.922 4.802h.248c.673 0 4.205-.025 7.555-.5 3.163-.451 7.368-1.386 7.368-4.302 0-7.225-3.64-11.757-10.527-13.11" fill="url(#c)"/></g></svg>