<svg width="32" height="40" xmlns="http://www.w3.org/2000/svg"><defs><linearGradient x1="68.17%" y1="178.129%" x2="39.098%" y2="0%" id="a"><stop stop-color="#DCFE81" offset="0%"/><stop stop-color="#A5CD38" offset="100%"/></linearGradient><linearGradient x1="57.335%" y1="178.129%" x2="45.599%" y2="0%" id="b"><stop stop-color="#DCFE81" offset="0%"/><stop stop-color="#A5CD38" offset="100%"/></linearGradient></defs><g fill="none" fill-rule="evenodd"><path d="M15.968 37.477c-13.682 0-13.682-7.01-13.682-9.314 0-6.81 8.71-16.682 12.404-16.682.321 0 .479.094.57.164.558.437 1.282.949 2.118 1.542 4.29 3.04 12.273 8.7 12.273 14.976 0 2.303 0 9.314-13.683 9.314M10.704 4.085c-.281-.544-.339-1.022-.16-1.313.182-.29.643-.465 1.235-.465.66 0 1.43.208 2.244.61a4.176 4.176 0 0 0 1.8.396c1.021 0 1.984-.335 2.833-.63.477-.167.928-.324 1.327-.402.564-.109.97.102 1.15.644.21.636.16 1.27-.74 2.46-.758 1.005-2.153 2.23-3.342 2.96a7.04 7.04 0 0 0 .477-1.72 1.13 1.13 0 0 0-.972-1.273 1.139 1.139 0 0 0-1.29.957 4.969 4.969 0 0 1-.852 2.126c-1.44-.998-2.93-2.842-3.71-4.35m8.008 7.272a124.16 124.16 0 0 1-1.068-.762c1.87-.96 3.764-2.78 4.583-3.863.833-1.103 1.707-2.611 1.077-4.508C22.85.852 21.682 0 20.258 0c-.237 0-.478.024-.716.07-.562.11-1.115.302-1.648.487-.741.259-1.44.502-2.072.502-.297 0-.563-.057-.793-.165-1.111-.55-2.235-.84-3.25-.84-1.414 0-2.575.562-3.183 1.541-.614.989-.589 2.237.072 3.514.674 1.303 2.081 3.281 3.774 4.671C7.158 12.112 0 21.39 0 28.163 0 35.838 5.372 39.73 15.968 39.73c10.597 0 15.969-3.892 15.969-11.567 0-7.432-8.279-13.3-13.225-16.806" fill="url(#a)"/><path d="M15.726 20.638c1.746 0 2.617 1.608 2.663 1.694a1.15 1.15 0 0 0 1.529.5 1.12 1.12 0 0 0 .514-1.51c-.052-.103-1.132-2.175-3.438-2.773v-2.21H14.71v2.18c-1.5.36-2.7 1.488-3.065 3.005-.41 1.71.387 3.343 2.033 4.158.386.19.858.344 1.36.506 1.828.59 3.119 1.116 3.083 2.503-.033 1.285-1.284 1.594-1.667 1.657-1.112.186-2.552-.25-3.09-1.65a1.147 1.147 0 0 0-1.472-.656c-.59.22-.89.87-.666 1.453.662 1.727 2.043 2.659 3.484 2.995v2.254h2.285v-2.213c2.027-.402 3.363-1.867 3.411-3.783.082-3.17-2.884-4.13-4.656-4.702-.417-.135-.812-.263-1.046-.378-.952-.472-.932-1.22-.835-1.624a1.878 1.878 0 0 1 1.858-1.406" fill="url(#b)"/></g></svg>