<svg width="36" height="38" xmlns="http://www.w3.org/2000/svg"><defs><linearGradient x1="78.119%" y1="62.771%" x2="33.129%" y2="45.016%" id="a"><stop stop-color="#DCFE81" offset="0%"/><stop stop-color="#A5CD38" offset="100%"/></linearGradient><linearGradient x1="78.119%" y1="121.836%" x2="33.129%" y2="21.967%" id="b"><stop stop-color="#DCFE81" offset="0%"/><stop stop-color="#A5CD38" offset="100%"/></linearGradient><linearGradient x1="75.631%" y1="178.129%" x2="34.622%" y2="0%" id="c"><stop stop-color="#DCFE81" offset="0%"/><stop stop-color="#A5CD38" offset="100%"/></linearGradient></defs><g fill="none" fill-rule="evenodd"><path fill="url(#a)" d="M21.952 13.73h7.522v-2.375h-7.522zm0 8.099h7.522v-2.375h-7.522z"/><path fill="url(#b)" d="M15.298 11.798l-2.301-1.688-1.43 1.908 3.964 2.908 5.35-5.295-1.696-1.68zm0 7.99L12.997 18.1l-1.43 1.908 3.964 2.908 5.35-5.295-1.696-1.68z" transform="translate(0 .582)"/><path d="M33.334 28.552c0 5.435-2.238 5.885-4.732 5.885H7.423c-.498-.082-3.895-.818-4.368-5.748h19.943c.476 2.234 1.858 5.041 4.83 5.041.663 0 1.2-.532 1.2-1.187 0-.656-.537-1.188-1.2-1.188-2.148 0-2.605-3.93-2.608-3.967a1.197 1.197 0 0 0-1.195-1.074H8.2V3.97c0-.873.718-1.583 1.6-1.583h21.933c.883 0 1.6.71 1.6 1.583v24.582zm-1.6-28.54H9.801c-2.205 0-4 1.776-4 3.958v22.344H1.8c-.663 0-1.2.532-1.2 1.187C.6 36 7.143 36.8 7.209 36.805c.043.005.086.007.13.007h21.262c4.866 0 7.132-2.625 7.132-8.26V3.97c0-2.182-1.794-3.958-4-3.958z" fill="url(#c)" transform="translate(0 .582)"/></g></svg>