<svg width="45" height="30" xmlns="http://www.w3.org/2000/svg"><defs><linearGradient x1="78.119%" y1="172.665%" x2="33.129%" y2="2.132%" id="a"><stop stop-color="#DCFE81" offset="0%"/><stop stop-color="#A5CD38" offset="100%"/></linearGradient><linearGradient x1="77.759%" y1="178.129%" x2="33.345%" y2="0%" id="b"><stop stop-color="#DCFE81" offset="0%"/><stop stop-color="#A5CD38" offset="100%"/></linearGradient><linearGradient x1="54.683%" y1="178.129%" x2="47.191%" y2="0%" id="c"><stop stop-color="#DCFE81" offset="0%"/><stop stop-color="#A5CD38" offset="100%"/></linearGradient><linearGradient x1="77.775%" y1="178.129%" x2="33.335%" y2="0%" id="d"><stop stop-color="#DCFE81" offset="0%"/><stop stop-color="#A5CD38" offset="100%"/></linearGradient><linearGradient x1="78.119%" y1="71.874%" x2="33.129%" y2="41.464%" id="e"><stop stop-color="#DCFE81" offset="0%"/><stop stop-color="#A5CD38" offset="100%"/></linearGradient><linearGradient x1="78.119%" y1="106.693%" x2="33.129%" y2="27.877%" id="f"><stop stop-color="#DCFE81" offset="0%"/><stop stop-color="#A5CD38" offset="100%"/></linearGradient><linearGradient x1="78.119%" y1="71.868%" x2="33.129%" y2="41.466%" id="g"><stop stop-color="#DCFE81" offset="0%"/><stop stop-color="#A5CD38" offset="100%"/></linearGradient></defs><g fill="none" fill-rule="evenodd"><path d="M24.444 23.722c-.59.595-1.375.921-2.21.921s-1.62-.326-2.21-.92a3.164 3.164 0 0 1 0-4.45c.884-.888 5.815-3.351 10.1-5.358-2.163 4.144-4.787 8.909-5.68 9.807m7.917-13.572c-2.04.916-12.311 5.576-14.087 7.363-2.185 2.197-2.185 5.773 0 7.97a5.546 5.546 0 0 0 3.96 1.65 5.546 5.546 0 0 0 3.96-1.65c1.792-1.802 7.168-12.427 7.776-13.633.236-.47.153-1.04-.208-1.421a1.235 1.235 0 0 0-1.4-.279" fill="url(#a)"/><path d="M22.234 23.315c.89 0 1.61-.725 1.61-1.62 0-.895-.72-1.621-1.61-1.621-.89 0-1.61.726-1.61 1.621s.72 1.62 1.61 1.62" fill="url(#b)"/><path d="M23.471 9.848V6.274c0-.688-.554-1.246-1.237-1.246-.684 0-1.238.558-1.238 1.246v3.574a1.24 1.24 0 0 0 1.238 1.245 1.24 1.24 0 0 0 1.237-1.245" fill="url(#c)"/><path d="M12.014 9.98a1.232 1.232 0 0 0-1.75 0 1.25 1.25 0 0 0 0 1.76l2.511 2.528a1.23 1.23 0 0 0 1.75 0 1.25 1.25 0 0 0 0-1.76l-2.51-2.528z" fill="url(#d)"/><path d="M8.605 20.45H5.053c-.683 0-1.238.557-1.238 1.245 0 .687.555 1.245 1.238 1.245h3.552c.684 0 1.238-.558 1.238-1.245 0-.688-.554-1.246-1.238-1.246" fill="url(#e)"/><path d="M22.233 0C9.973 0 0 10.036 0 22.373c0 2.128.306 4.25.909 6.312a1.237 1.237 0 0 0 1.537.842 1.248 1.248 0 0 0 .838-1.546 19.922 19.922 0 0 1-.81-5.608c0-10.964 8.865-19.883 19.76-19.883 10.894 0 19.758 8.92 19.758 19.883 0 1.89-.272 3.777-.809 5.608a1.248 1.248 0 0 0 1.189 1.597c.535 0 1.028-.352 1.186-.893.603-2.06.909-4.183.909-6.312C44.467 10.036 34.493 0 22.233 0" fill="url(#f)"/><path d="M39.415 20.45h-3.552c-.684 0-1.238.556-1.238 1.244s.554 1.245 1.238 1.245h3.552a1.24 1.24 0 0 0 1.237-1.245 1.24 1.24 0 0 0-1.237-1.245" fill="url(#g)"/></g></svg>