<svg width="25" height="41" xmlns="http://www.w3.org/2000/svg"><defs><linearGradient x1="77.438%" y1="178.129%" x2="33.538%" y2="0%" id="a"><stop stop-color="#DCFE81" offset="0%"/><stop stop-color="#A5CD38" offset="100%"/></linearGradient><linearGradient x1="67.064%" y1="178.129%" x2="39.762%" y2="0%" id="b"><stop stop-color="#DCFE81" offset="0%"/><stop stop-color="#A5CD38" offset="100%"/></linearGradient><linearGradient x1="78.119%" y1="83.292%" x2="33.129%" y2="37.009%" id="c"><stop stop-color="#DCFE81" offset="0%"/><stop stop-color="#A5CD38" offset="100%"/></linearGradient></defs><g fill="none" fill-rule="evenodd"><path d="M13.605 12.44c.704 0 1.275-.579 1.275-1.292 0-.713-.571-1.291-1.275-1.291-.705 0-1.276.578-1.276 1.291s.57 1.292 1.276 1.292" fill="url(#a)"/><path d="M5.054 29.465H3.15c.712-1.757 1.464-4.74.355-8.076-2.018-6.071-1.879-11.073.401-14.463 2.816-4.186 7.169-4.81 9.513-4.81.269 0 .516.008.736.02l-.611 2.286c-1.572.14-5.013.778-7.184 3.69-2.136 2.866-2.396 7.047-.771 12.427 1.112 3.681 1.074 6.036.8 7.435h2.13c.267-1.766.183-4.363-.931-8.053-1.416-4.687-1.271-8.226.431-10.522 1.812-2.445 4.972-2.828 5.987-2.89l8.298 6.644-.697 1.82c-.816.246-2.67.724-4.726.724-1.51 0-2.841-.256-3.957-.76a1.037 1.037 0 0 0-1.338.45 1.066 1.066 0 0 0 .325 1.39c1.477 1.016 5.53 4.011 6.539 5.652 1.194 1.942 1.164 4.04.893 5.545h2.126c.277-1.851.204-4.306-1.245-6.664-.642-1.045-2.044-2.347-3.44-3.497 3.168.019 5.86-.95 5.972-.991a1.06 1.06 0 0 0 .62-.613l1.155-3.018a1.066 1.066 0 0 0-.325-1.213l-8.663-6.935.948-3.548a1.07 1.07 0 0 0-.121-.836 1.046 1.046 0 0 0-.687-.479C15.646.173 14.756 0 13.419 0c-2.757 0-7.883.745-11.24 5.735-2.663 3.959-2.89 9.606-.655 16.329 1.394 4.193-.918 7.84-.94 7.874a1.068 1.068 0 0 0-.05 1.085c.181.344.535.558.92.558h2.994l.606-2.116z" fill="url(#b)"/><path d="M22.043 38.716H5.32c-.48 0-.815-.31-.815-.589 0-.279.335-.589.815-.589h16.724c.48 0 .815.31.815.59 0 .278-.335.588-.815.588zm-3.048-7.255l1.158 3.962H6.874L8.03 31.46h10.966zm3.347 3.99l-1.786-6.105H6.466l-1.792 6.15c-1.29.273-2.26 1.346-2.26 2.631 0 1.491 1.304 2.705 2.905 2.705h16.724c1.602 0 2.905-1.214 2.905-2.705 0-1.396-1.146-2.535-2.606-2.676z" fill="url(#c)"/></g></svg>