<svg width="44" height="42" xmlns="http://www.w3.org/2000/svg"><defs><linearGradient x1="78.119%" y1="166.895%" x2="33.129%" y2="4.384%" id="a"><stop stop-color="#DCFE81" offset="0%"/><stop stop-color="#A5CD38" offset="100%"/></linearGradient><linearGradient x1="74.441%" y1="178.129%" x2="35.336%" y2="0%" id="b"><stop stop-color="#DCFE81" offset="0%"/><stop stop-color="#A5CD38" offset="100%"/></linearGradient></defs><g fill="none" fill-rule="evenodd"><path d="M38.336 31.446a3.41 3.41 0 0 1-3.4-3.41 3.41 3.41 0 0 1 3.4-3.412 3.41 3.41 0 0 1 3.401 3.411 3.41 3.41 0 0 1-3.4 3.411M21.94 38.14c-1.435 0-2.822-.194-4.15-.54a3.879 3.879 0 0 0-3.87-3.823c-.855 0-1.643.282-2.284.755a16.656 16.656 0 0 1-6.217-11.32 13.447 13.447 0 0 0 1.526 3.22c3.81 5.775 9.893 8.19 15.891 8.19 3.57 0 7.11-.856 10.123-2.37a34.628 34.628 0 0 0 1.514-.804c.133.15.274.293.423.427-3.045 3.813-7.717 6.265-12.956 6.265m-8.02 1.642a2.123 2.123 0 0 1-2.117-2.123c0-1.172.95-2.124 2.117-2.124a2.123 2.123 0 0 1 0 4.247m-12.167-23a3.41 3.41 0 0 1 3.4-3.41 3.41 3.41 0 0 1 3.402 3.41 3.41 3.41 0 0 1-3.401 3.411 3.41 3.41 0 0 1-3.401-3.411M14.06 6.839a3.758 3.758 0 0 0 2.271.765 3.798 3.798 0 0 0 3.61-2.646 15.99 15.99 0 0 1 1.999-.132c9.159 0 16.61 7.471 16.61 16.657 0 .126-.007.25-.01.376a18.137 18.137 0 0 0-.987-1.757c-2.393-3.766-6.057-6.58-10.19-8.198a8.382 8.382 0 0 1-.14 1.82c3.588 1.512 6.755 4.016 8.855 7.322.41.642.756 1.3 1.058 1.967a5.172 5.172 0 0 0-3.956 5.022c0 .68.135 1.326.373 1.92-.419.234-.872.476-1.377.73-7.401 3.716-18.25 3.149-23.772-5.221-.794-1.206-1.284-2.508-1.609-3.786a5.174 5.174 0 0 0 3.514-4.896c0-.76-.17-1.48-.464-2.13.658-.416 1.355-.79 2.094-1.112a17.638 17.638 0 0 1 4.55-1.27 6.925 6.925 0 0 1 .192-1.792 19.34 19.34 0 0 0-5.438 1.453c-.84.365-1.632.794-2.378 1.272a5.18 5.18 0 0 0-.863-.725 16.726 16.726 0 0 1 6.058-5.639m2.271-5.08c1.124 0 2.037.916 2.037 2.043a2.042 2.042 0 0 1-2.037 2.043 2.043 2.043 0 1 1 0-4.086M40.483 23.34c.063-.612.108-1.23.108-1.858 0-10.314-8.366-18.704-18.65-18.704-.653 0-1.296.046-1.933.112A3.796 3.796 0 0 0 16.332 0a3.8 3.8 0 0 0-3.523 5.198 18.792 18.792 0 0 0-6.742 6.5 5.161 5.161 0 0 0-.912-.085C2.312 11.613 0 13.932 0 16.782a5.174 5.174 0 0 0 3.294 4.816c.036 5.882 2.795 11.123 7.071 14.529a3.882 3.882 0 0 0 3.556 5.414 3.87 3.87 0 0 0 3.358-1.957c1.493.386 3.052.603 4.662.603 5.987 0 11.31-2.853 14.724-7.266a5.095 5.095 0 0 0 1.671.285c2.842 0 5.156-2.32 5.156-5.17a5.173 5.173 0 0 0-3.009-4.695" fill="url(#a)"/><path d="M19.68 19.97c.891-.333 1.462-.847 1.696-1.529.158-.455.224-1.187-.35-2.083a1.3 1.3 0 0 0-.227-.255l-.051-.047c-.606-.62-1.346-2.825-.766-4.208.188-.448.593-1.043 1.946-1.043 1.351 0 1.758.595 1.945 1.042.58 1.383-.16 3.588-.77 4.214l-.085.076a1.1 1.1 0 0 0-.19.223c-.572.896-.505 1.626-.348 2.081.243.706.847 1.232 1.792 1.563a.92.92 0 0 0 .154.041c3.546.677 5.277 2.798 5.292 6.485-.44.613-3.598 1.26-7.698 1.26h-.158c-4.1 0-7.257-.647-7.697-1.26.014-3.678 1.737-5.798 5.264-6.479.089-.017.173-.044.251-.081m-.408-2.33a.67.67 0 0 1 .042.097 1.37 1.37 0 0 1-.404.208c-4.519.914-6.906 3.897-6.906 8.633 0 1.541 1.71 3.379 9.858 3.379h.158c.434 0 2.71-.016 4.87-.321 2.141-.303 4.989-.95 4.989-3.058 0-4.757-2.407-7.745-6.962-8.645a1.3 1.3 0 0 1-.375-.196.717.717 0 0 1 .042-.098 1.45 1.45 0 0 0 .068-.067c1.131-1.16 2.166-4.293 1.213-6.565-.37-.884-1.376-2.368-3.937-2.368-2.562 0-3.566 1.484-3.938 2.368-.953 2.272.082 5.406 1.212 6.564.022.023.045.045.07.068" fill="url(#b)"/></g></svg>